<svg width="70" height="70" viewBox="0 0 70 70" fill="none" xmlns="http://www.w3.org/2000/svg">
<g clip-path="url(#clip0_47_23336)">
<path d="M70 35C70 15.67 54.33 0 35 0C15.67 0 0 15.67 0 35C0 54.33 15.67 70 35 70C54.33 70 70 54.33 70 35Z" fill="#A835F8"/>
<path fill-rule="evenodd" clip-rule="evenodd" d="M56.3936 35.6359C56.3892 35.7805 56.1923 35.8187 56.1355 35.6855C56.1111 35.628 56.0862 35.5703 56.0608 35.5126C56.0144 35.407 56.0274 35.2842 56.0967 35.1919C56.1109 35.173 56.1401 35.1348 56.1749 35.0893C56.2685 34.9669 56.4035 34.9852 56.4035 35.121C56.4035 35.2991 56.3993 35.4534 56.3936 35.6359ZM55.3578 32.8072C55.1983 33.0945 54.7893 33.1077 54.6122 32.8307C54.5847 32.7879 54.557 32.7451 54.5291 32.7021C53.8907 31.7219 53.1561 30.7597 52.3355 29.8246C52.1341 29.595 52.2988 29.2347 52.6044 29.2345H52.6117C54.5291 29.2345 55.5343 29.7082 55.8411 30.2865C56.0971 30.7702 56.0186 31.6161 55.3578 32.8072ZM54.9293 42.8342C54.8264 43.0958 54.7188 43.3558 54.6057 43.6133C54.5881 43.6488 54.5715 43.6847 54.5532 43.7199C53.8475 45.0783 52.6633 46.1479 51.0809 46.8922C50.7258 47.059 50.3374 46.7342 50.4431 46.3565C50.9686 44.4758 51.3663 42.4363 51.624 40.2981C51.672 39.8994 51.8686 39.5335 52.1725 39.2707C52.8232 38.7077 53.431 38.1455 53.99 37.5873L53.9961 37.581C54.2712 37.3065 54.7404 37.4247 54.8525 37.797C55.4048 39.6329 55.4354 41.343 54.9293 42.8342ZM50.6278 49.624C50.4669 49.7961 50.3025 49.9661 50.1351 50.1335C49.8434 50.4248 49.5448 50.7066 49.2397 50.9788C49.0472 51.1502 48.7562 50.9358 48.8651 50.702C48.8961 50.6353 48.927 50.5681 48.9576 50.5003C49.0858 50.2177 49.2097 49.9277 49.3301 49.6322C49.3586 49.5625 49.4187 49.5105 49.4917 49.4918C49.7951 49.4148 50.091 49.3298 50.3791 49.2368C50.6127 49.1617 50.7957 49.4448 50.6278 49.624ZM47.469 47.9263C46.8302 48.0189 46.1585 48.0787 45.4557 48.1034C43.741 48.1635 41.9279 48.0155 40.0655 47.6726C39.8385 47.6309 39.7948 47.3239 40.0007 47.2198C40.4069 47.0141 40.8134 46.8039 41.2197 46.5885C44.0694 45.0781 46.7284 43.427 49.056 41.7341C49.2306 41.6072 49.4711 41.757 49.4357 41.97C49.1129 43.91 48.6659 45.7364 48.1046 47.3942C48.0089 47.6766 47.7642 47.8835 47.469 47.9263ZM46.8102 50.511C45.2823 53.5161 43.4006 55.2032 41.5766 55.1692C39.5942 55.134 37.6174 53.0695 36.1535 49.5056L36.1518 49.5017C36.0589 49.2754 36.1657 49.0165 36.3898 48.9191C36.4053 48.9122 36.4209 48.9055 36.4364 48.8986C36.5325 48.8568 36.6404 48.8492 36.7415 48.8778C39.4798 49.6462 42.1779 50.0473 44.7057 50.0473C44.9804 50.0473 45.2532 50.0426 45.5237 50.0332C45.8403 50.0219 46.152 50.004 46.4581 49.9797C46.742 49.9572 46.9395 50.2571 46.8102 50.511ZM37.7624 56.2256C36.854 56.3423 35.9321 56.4021 35.0013 56.4021C30.8412 56.4021 26.8623 55.2232 23.4462 53.0233C23.2111 52.8718 23.311 52.5071 23.5903 52.4943C23.6483 52.4916 23.7024 52.4886 23.75 52.4857C24.6182 52.4293 25.57 52.3021 26.6015 52.1034C28.7954 51.6814 31.2343 50.9574 33.7879 49.9824C34.0169 49.8951 34.2724 50.0087 34.3656 50.2353L34.3673 50.2393C35.3569 52.6488 36.5749 54.4694 37.9425 55.6275C38.1685 55.8191 38.0562 56.1878 37.7624 56.2256ZM25.3858 41.2299C27.2717 39.6942 29.4814 38.1619 31.9054 36.7112C31.9574 39.8115 32.2974 42.788 32.899 45.4766C32 45.0932 31.1037 44.671 30.2152 44.2095C28.4943 43.3151 26.8751 42.3133 25.3858 41.2299ZM19.5208 49.5369C19.0708 48.6881 19.6523 46.7218 22.6064 43.7334L22.6078 43.7319C22.9163 43.4203 22.8867 42.9089 22.5424 42.6375C22.424 42.5446 22.3065 42.4506 22.1898 42.3565C21.8956 42.1188 21.4698 42.1406 21.2027 42.4082C21.1441 42.4667 21.1005 42.5108 21.0877 42.524C19.611 44.0397 18.5775 45.4428 17.9985 46.7048C17.8344 47.0624 17.3388 47.101 17.1218 46.7728C14.83 43.3084 13.599 39.2489 13.599 34.9997C13.599 33.4806 13.7569 31.9856 14.0639 30.5335C14.1102 30.3138 14.4202 30.2997 14.4852 30.5146C14.9293 31.9806 15.652 33.497 16.6507 35.0303C17.9949 37.0948 19.7677 39.0793 21.8685 40.8998C22.5856 41.5211 23.3429 42.1221 24.1328 42.7019C25.7339 43.8769 27.4738 44.9612 29.3249 45.9229C30.1454 46.3493 30.9445 46.7562 31.7629 47.1247C32.2185 47.3297 32.737 47.3457 33.202 47.1631C33.5879 47.012 33.9766 46.8548 34.3675 46.6914C34.7927 46.514 35.0233 46.0505 34.9106 45.6037C34.8965 45.5479 34.8854 45.503 34.8791 45.4766C34.2347 42.7645 33.8765 39.7114 33.8343 36.5135L33.833 36.5142C33.8326 36.4762 33.8328 36.4376 33.8324 36.3992C33.8305 36.2244 33.8316 36.0483 33.8284 35.8739C33.8274 35.8183 33.829 35.7241 33.8297 35.6683C33.8301 35.646 33.8297 35.624 33.8297 35.6019C33.8308 35.4017 33.833 35.2016 33.8366 35.0007C33.8465 34.4522 33.8662 33.9076 33.8945 33.3675L33.8935 33.3681C34.0922 29.5092 34.7465 25.8832 35.7876 22.8331C35.8839 22.5509 35.7334 22.2445 35.4512 22.1482C35.1761 22.0542 34.9012 21.9643 34.6267 21.8783C34.349 21.7912 34.0523 21.941 33.9585 22.2166C32.8302 25.529 32.1339 29.4589 31.9482 33.6174C31.9245 34.145 31.6374 34.6251 31.1831 34.8943C28.7201 36.354 26.4581 37.9015 24.504 39.4613C24.0969 39.7863 23.5154 39.7739 23.1217 39.4325C21.1632 37.7344 19.5149 35.8901 18.2688 33.9765C15.8201 30.2164 15.2382 26.6742 16.6307 24.0041C16.6345 23.9978 16.6379 23.9913 16.6414 23.9852C16.819 23.6905 17.0036 23.3999 17.1958 23.1133C18.7959 20.9953 21.7741 19.7679 25.7239 19.6291C25.9738 19.6203 26.2254 19.6159 26.4793 19.6159C28.902 19.6159 31.502 20.0157 34.1463 20.7787C34.2042 20.7955 34.2628 20.8123 34.3207 20.8293C34.3654 20.8425 34.4101 20.8549 34.4548 20.8683C35.0659 21.0509 35.6786 21.2534 36.2922 21.4741C36.3065 21.4792 36.321 21.4844 36.3353 21.4894C36.4952 21.5472 36.6549 21.6063 36.8145 21.6666C36.8645 21.6854 36.9146 21.7045 36.9646 21.7238C37.0126 21.7423 37.0607 21.7602 37.109 21.7788L37.1083 21.7797C38.3997 22.2795 39.6901 22.8608 40.9643 23.5231C43.4306 24.8044 45.6882 26.3065 47.6528 27.9545C43.9034 28.8134 39.5453 30.4703 35.1635 32.7044C34.9614 32.8076 34.8283 33.0107 34.8155 33.2374C34.8002 33.5089 34.7801 34.0549 34.7656 34.4889C34.7566 34.7613 35.0447 34.9418 35.286 34.815L35.2885 34.8135C39.6269 32.5354 43.9567 30.8327 47.675 29.9329C48.37 29.7648 48.82 29.0973 48.7224 28.389C48.654 27.8942 48.577 27.4072 48.4918 26.9287C48.3847 26.3277 48.0557 25.7903 47.5701 25.4205C45.8286 24.0939 43.9093 22.877 41.8547 21.8093C40.4701 21.0899 39.0652 20.4595 37.6573 19.9219C37.3562 19.8069 37.2271 19.451 37.3843 19.1696C38.8348 16.5748 40.5599 15.1216 42.2406 15.1216C42.258 15.1216 42.2754 15.1216 42.2928 15.122C44.2753 15.1575 46.2521 17.2218 47.716 20.7856C48.4569 22.5897 49.0311 24.6701 49.4235 26.931C49.4214 26.9291 49.4193 26.9275 49.4174 26.9256C49.5849 27.8904 49.7198 28.8876 49.8199 29.9107C49.8113 29.9161 49.8021 29.9209 49.7934 29.9264C49.8052 29.9384 49.8176 29.9503 49.8295 29.9625C49.9955 31.679 50.0656 33.4665 50.0329 35.2905C50.0123 36.4443 49.9508 37.5821 49.8514 38.6953C47.1991 40.8387 43.9198 42.9718 40.3152 44.8821C39.1306 45.5099 37.9463 46.0944 36.7734 46.6324C36.7552 46.6408 36.7371 46.649 36.7189 46.6574C36.6293 46.6983 36.5394 46.7398 36.4498 46.7803L36.4477 46.7797C35.4759 47.2193 34.5134 47.626 33.5667 47.9975C33.5131 48.0185 33.4605 48.0394 33.4072 48.0602C33.3407 48.0862 33.2742 48.1118 33.2079 48.1374C33.049 48.1983 32.8908 48.2583 32.733 48.3173C32.6896 48.3334 32.6459 48.3504 32.6025 48.3664C32.4109 48.4375 32.2203 48.5066 32.0304 48.5745C32.0067 48.5829 31.983 48.592 31.9595 48.6004C29.9309 49.3229 27.9976 49.8683 26.2365 50.2072C21.981 51.0264 19.9772 50.3979 19.5208 49.5369ZM22.5772 17.5684C26.179 14.9892 30.483 13.5975 35.0013 13.5975C36.1938 13.5975 37.3711 13.6951 38.5246 13.8854C38.8335 13.9364 38.9372 14.3307 38.6908 14.524C37.5729 15.4003 36.5344 16.6969 35.6153 18.3784C35.3909 18.7887 34.9152 18.9893 34.4653 18.8626C31.4202 18.0053 28.4242 17.602 25.6561 17.6992C24.635 17.7351 23.668 17.8385 22.7596 18.006C22.5044 18.053 22.3663 17.7193 22.5772 17.5684ZM51.9555 33.1664C51.9492 32.9211 52.264 32.8164 52.4063 33.0162C52.5811 33.2615 52.7496 33.5081 52.911 33.7559C53.1254 34.0854 53.325 34.4129 53.5105 34.7384C53.6261 34.9413 53.5984 35.1959 53.441 35.3684C53.1911 35.6429 52.92 35.9266 52.6256 36.2208C52.5181 36.328 52.4086 36.4355 52.2969 36.5431C52.1584 36.677 51.9261 36.575 51.9337 36.3824C51.9473 36.0313 51.9574 35.679 51.9637 35.3249C51.9767 34.5997 51.9736 33.8797 51.9555 33.1664ZM49.736 19.4772C49.8705 19.6048 50.0035 19.7345 50.1351 19.8661C52.1975 21.9285 53.786 24.3383 54.8483 26.9629C54.9555 27.2275 54.7308 27.5045 54.4498 27.454C53.8351 27.3436 53.1435 27.2943 52.3777 27.3071C51.847 27.3159 51.3858 26.944 51.2926 26.4215C50.8765 24.0882 50.2748 21.9329 49.5022 20.0518C49.4581 19.9445 49.4136 19.8386 49.3685 19.7336C49.2703 19.5047 49.5553 19.3056 49.736 19.4772ZM57.8306 30.1467C56.9086 25.7657 54.7404 21.7404 51.5004 18.5004C47.0933 14.0933 41.234 11.6665 35.0013 11.6665C28.7688 11.6665 22.9092 14.0933 18.5022 18.5004C17.4302 19.5723 16.4769 20.7304 15.6457 21.9585C15.3985 22.2875 15.1771 22.635 14.9803 22.9987C12.8211 26.5865 11.668 30.7045 11.668 34.9997C11.668 41.2324 14.0951 47.0918 18.5022 51.4988C22.9092 55.9058 28.7688 58.3331 35.0013 58.3331C41.234 58.3331 47.0933 55.9058 51.5004 51.4988C53.5804 49.419 55.2187 47.0154 56.3695 44.4019C56.5101 44.1123 56.6328 43.8158 56.7384 43.5134C57.7859 40.8366 58.3347 37.9604 58.3347 34.9997C58.3347 33.37 58.1672 31.7666 57.8434 30.2072C57.839 30.187 57.835 30.1669 57.8306 30.1467Z" fill="white"/>
</g>
<defs>
<clipPath id="clip0_47_23336">
<rect width="70" height="70" fill="white"/>
</clipPath>
</defs>
</svg>
