<svg width="21" height="21" viewBox="0 0 21 21" fill="none" xmlns="http://www.w3.org/2000/svg">
<g clip-path="url(#clip0_47_23494)">
<path d="M10.0295 0.395279C10.1215 -0.13176 10.878 -0.131759 10.97 0.39528L11.3048 2.31581C11.9274 5.88539 14.7226 8.68063 18.2922 9.30312L20.2127 9.63805C20.7397 9.72997 20.7397 10.4864 20.2127 10.5784L18.2922 10.9133C14.7226 11.5358 11.9274 14.3311 11.3048 17.9006L10.97 19.8211C10.878 20.3481 10.1215 20.3481 10.0295 19.8211L9.69468 17.9006C9.07217 14.3311 6.27694 11.5358 2.70735 10.9133L0.78682 10.5784C0.25978 10.4864 0.259782 9.72997 0.786821 9.63805L2.70736 9.30312C6.27694 8.68063 9.07217 5.88539 9.69468 2.31581L10.0295 0.395279Z" fill="white"/>
</g>
<defs>
<clipPath id="clip0_47_23494">
<rect width="21" height="21" fill="white"/>
</clipPath>
</defs>
</svg>
