<svg width="269" height="54" viewBox="0 0 269 54" fill="none" xmlns="http://www.w3.org/2000/svg">
<path d="M27.5464 33.9229C24.7698 33.9229 23.1429 32.1461 23.1429 30.0762C23.1429 29.0321 23.4966 27.9147 24.7875 27.0171C23.6026 26.1562 23.1959 25.1487 23.1959 24.123C23.1959 22.1813 24.7698 20.4229 27.4932 20.4229H30.4289C32.4803 20.4229 34.3549 21.4853 34.9385 23.9032H33.1877C32.7102 22.6026 31.6845 22.0714 30.4289 22.0714H27.4932C25.9547 22.0714 24.9114 22.914 24.9114 24.123C24.9114 25.4785 25.9371 26.2295 27.4932 26.2295H31.8967V27.8597H27.5464C25.9017 27.8597 24.8406 28.7207 24.8406 30.1128C24.8406 31.3768 25.9547 32.2743 27.5464 32.2743H30.4819C31.7729 32.2743 32.7279 31.7797 33.2585 30.4426H35.0093C34.4257 32.8421 32.5687 33.9229 30.4819 33.9229H27.5464Z" fill="white"/>
<path d="M60.8819 33.6663V27.9879H53.0299V33.6663H51.3322V20.6792H53.0299V26.3577H60.8819V20.6792H62.5796V33.6663H60.8819Z" fill="white"/>
<path d="M66.2052 33.6663H76.0201V32.0176H67.9029V27.9878C66.9656 27.9878 66.2052 28.7754 66.2052 29.7463V33.6663Z" fill="white"/>
<path d="M76.0201 22.3277V20.6792H66.2052V24.5991C66.2052 25.57 66.9656 26.3577 67.9029 26.3577V22.3277H76.0201Z" fill="white"/>
<path d="M67.9031 27.9881H75.5252V26.3579H67.9031V27.9881Z" fill="white"/>
<path d="M86.8431 28.2993L90.7868 33.6663H88.6647L84.7209 28.2993H81.3255V33.6663H79.6277V20.6792H86.454C88.8061 20.6792 90.4508 22.053 90.4508 24.4893C90.4508 26.7973 88.9652 28.1528 86.8431 28.2993ZM86.4364 22.3277H81.3078V26.6691H86.4364C87.798 26.6691 88.7353 25.8997 88.7353 24.5076C88.7353 23.1155 87.798 22.3277 86.4364 22.3277Z" fill="white"/>
<path d="M93.8286 33.6663H103.643V32.0176H95.5263V27.9878C94.589 27.9878 93.8286 28.7754 93.8286 29.7463V33.6663Z" fill="white"/>
<path d="M103.643 22.3277V20.6792H93.8286V24.5991C93.8286 25.57 94.589 26.3577 95.5263 26.3577V22.3277H103.643Z" fill="white"/>
<path d="M95.5262 27.9881H103.149V26.3579H95.5262V27.9881Z" fill="white"/>
<path d="M108.1 33.6663H106.349L111.867 20.6792H113.724L119.223 33.6663H117.402L116.129 30.6623H109.373L108.1 33.6663ZM112.751 22.6026L110.045 29.032H115.457L112.751 22.6026Z" fill="white"/>
<path d="M123.627 32.0178H131.957V33.6663H121.929V20.6792H123.627V32.0178Z" fill="white"/>
<path d="M48.1669 20.6792V22.3277H43.3744V33.6663H41.6767V22.3277H36.8841V20.6792H48.1669Z" fill="white"/>
<path d="M193.98 20.6611H195.677V28.2629C195.677 30.9006 197.11 32.2561 199.408 32.2561C201.707 32.2561 203.14 30.9006 203.14 28.2629V20.6611H204.837V28.2629C204.837 31.8898 202.68 33.8863 199.408 33.8863C196.119 33.8863 193.961 31.8714 193.961 28.2629V20.6611H193.98Z" fill="white"/>
<path d="M191.061 20.6611V22.3097H186.268V33.6482H184.571V22.3097H179.779V20.6611H191.061Z" fill="white"/>
<path d="M176.861 20.6611V33.6482H174.95L167.311 23.1706V33.6482H165.613V20.6611H167.523L175.162 31.1387V20.6611H176.861Z" fill="white"/>
<path d="M236.334 30.4242C236.9 31.5415 238.261 32.256 239.924 32.256C241.834 32.256 243.196 31.3401 243.196 30.0945C243.196 28.8672 242.329 28.2445 240.526 28.0429L238.333 27.8048C235.857 27.53 234.813 26.1379 234.813 24.3061C234.813 22.0164 236.67 20.4229 239.641 20.4229C242.718 20.4229 244.398 22.3279 244.929 23.9032H243.072C242.577 22.8225 241.198 22.0714 239.57 22.0714C237.608 22.0714 236.493 23.0789 236.493 24.2329C236.493 25.4235 237.343 26.0463 238.81 26.2112L241.162 26.4677C243.461 26.7241 244.841 28.0979 244.841 30.0029C244.841 31.9445 243.16 33.9229 239.871 33.9229C236.564 33.9229 234.991 32.1277 234.442 30.4426H236.334V30.4242Z" fill="white"/>
<path d="M222.115 33.6486H231.93V32.0001H223.813V27.9702C222.875 27.9702 222.115 28.7578 222.115 29.7287V33.6486Z" fill="white"/>
<path d="M231.93 22.3097V20.6611H222.115V24.5811C222.115 25.5519 222.875 26.3395 223.813 26.3395V22.3097H231.93Z" fill="white"/>
<path d="M223.813 27.9697H231.435V26.3394H223.813V27.9697Z" fill="white"/>
<path d="M215.325 28.2812L219.269 33.6482H217.147L213.221 28.2812H209.807V33.6482H208.109V20.6611H214.935C217.288 20.6611 218.932 22.035 218.932 24.4711C218.932 26.7791 217.465 28.1346 215.325 28.2812ZM214.935 22.3097H209.807V26.6509H214.935C216.298 26.6509 217.235 25.8816 217.235 24.4894C217.235 23.0973 216.298 22.3097 214.935 22.3097Z" fill="white"/>
<path d="M152.172 33.6486H161.987V32.0001H153.87V27.9702C152.933 27.9702 152.172 28.7578 152.172 29.7287V33.6486Z" fill="white"/>
<path d="M161.987 22.3097V20.6611H152.173V24.5811C152.173 25.5519 152.933 26.3395 153.87 26.3395V22.3097H161.987Z" fill="white"/>
<path d="M153.87 27.9702H161.51V26.3398H153.87V27.9702Z" fill="white"/>
<path d="M149.026 20.6611L144.852 33.062C144.728 33.4101 144.41 33.6482 144.056 33.6482H142.747L147.221 20.6611H149.026Z" fill="white"/>
<path d="M143.702 26.2108H141.757L141.208 24.5806H144.268L143.702 26.2108Z" fill="white"/>
<path d="M138.255 20.6611L142.729 33.6482H141.42C141.067 33.6482 140.731 33.4101 140.625 33.062L136.451 20.6611H138.255Z" fill="white"/>
</svg>
