<svg width="37" height="37" viewBox="0 0 37 37" fill="none" xmlns="http://www.w3.org/2000/svg">
<rect x="0.7" y="0.7" width="35.5995" height="35.5995" rx="17.7587" stroke="#DD0F4B" stroke-width="1.4"/>
<path d="M11.6531 31.3148C17.5994 33.2969 22.8024 32.1407 24.6606 31.3148C24.3137 30.522 21.7907 29.8283 20.5725 29.5805C18.2188 30.9432 18.0949 29.4566 16.3606 29.2708C14.9731 29.1221 12.6442 30.5715 11.6531 31.3148Z" fill="#DD0F4B"/>
<path d="M20.0005 16.8342C19.6643 17.4007 19.0709 17.7936 18.3807 17.856C18.598 20.0201 18.8644 23.8299 16.0572 28.2413C17.7913 28.4272 17.9151 29.9131 20.2687 28.5506C20.9255 26.8261 20.9644 22.8983 20.1855 16.8626C20.1229 16.8557 20.0613 16.8464 20.0005 16.8342ZM22.4943 15.1097C22.3377 16.0768 21.5238 16.8237 20.5251 16.8743H20.4732C20.9057 17.0755 21.5399 17.5058 21.9677 18.2446L22.9592 17.0065C22.7115 17.7289 22.2906 19.2473 22.5873 19.5453C22.9589 19.9169 23.7639 22.1476 23.5161 23.2625C24.3833 22.4366 25.8332 20.0907 24.6935 17.3157C24.2554 16.7429 23.3115 15.6528 22.4943 15.1097ZM19.3663 10.0692C18.7675 8.39674 16.3563 5.29936 11.5002 6.29031L13.1102 7.90131L15.2781 8.08727L14.04 8.39655L15.7117 9.82158L17.0124 9.388L16.2079 10.0692C16.9305 10.6885 18.3624 12.0627 18.3132 12.608C15.7321 10.3783 9.91389 7.70332 7.28773 14.8386L9.64158 14.219L10.633 12.608L10.0752 14.219H11.6862L12.5533 12.2988L12.2431 13.9088L14.5352 13.5995L15.2781 12.794L14.9688 13.9088H17.0829C14.1542 13.99 9.41496 15.533 10.633 21.3422L12.2431 19.5453C12.2431 18.9051 12.3056 17.5634 12.5533 17.3157L12.6766 18.6781C13.0483 18.7607 13.8044 18.7654 13.854 18.1212C13.9036 17.477 13.9567 16.4896 13.9774 16.0767L14.4736 17.626C14.9864 17.4379 15.9311 17.0168 16.2696 16.6247C16.1649 16.3923 16.0992 16.1383 16.0856 15.8701L16.0836 15.7615C16.0838 14.6349 16.9685 13.7145 18.0812 13.6582L18.1889 13.6563C18.3323 13.6563 18.4724 13.67 18.6078 13.6974C18.9154 13.1798 19.4365 12.8058 20.0514 12.6981L22.4013 11.184C22.3582 11.0258 22.2429 10.7517 22.0597 10.583C22.5433 10.8054 23.2533 11.0141 23.5787 10.6887C23.975 10.2925 23.5789 9.65663 23.3311 9.388C23.7443 9.65649 24.6813 10.1683 25.1271 10.0692C25.6846 9.94528 27.9147 9.13982 28.5341 9.2637C29.1518 9.38642 25.1886 6.16693 22.5256 7.52939C20.395 8.61946 19.1605 11.3691 18.8094 12.608L19.3663 10.0692ZM29.7105 18.4931C29.6504 15.2101 27.6687 9.61641 20.3215 12.6668L20.4164 12.6648C21.5162 12.6648 22.4188 13.5081 22.5139 14.5831C23.0462 14.3076 23.6064 13.931 23.5327 13.6426L24.074 15.0862L25.8699 15.829V14.219L26.8614 16.5729C27.6254 16.9446 29.2646 17.849 29.7105 18.4931ZM18.1889 13.9988C17.2154 13.9989 16.4264 14.7881 16.4262 15.7615C16.4262 16.0995 16.5235 16.4142 16.6885 16.6825C17.1153 17.0652 17.769 17.4641 18.3132 17.1924C18.3227 17.2947 18.3348 17.4027 18.3464 17.5164C18.895 17.4677 19.3706 17.1687 19.6589 16.7334C18.9027 16.4412 18.3561 15.7273 18.3132 14.8787L18.3112 14.771C18.3112 14.5063 18.362 14.2538 18.4512 14.0203C18.3655 14.0075 18.2781 13.9988 18.1889 13.9988ZM20.4164 13.0083C19.8028 13.0084 19.2631 13.3224 18.9474 13.7982C19.7353 14.1028 20.2949 14.8662 20.2951 15.7615L20.2922 15.8701C20.2807 16.0955 20.2329 16.311 20.1561 16.5122C20.2412 16.5248 20.3279 16.5337 20.4164 16.5337C21.3389 16.5337 22.0953 15.8252 22.1723 14.9227C22.1023 14.8886 22.0337 14.8606 21.9677 14.8386C22.0322 14.8119 22.1033 14.7806 22.1782 14.7466C22.1651 13.7842 21.3819 13.0083 20.4164 13.0083ZM18.7849 14.1035C18.7006 14.3095 18.6538 14.5347 18.6538 14.771C18.6538 15.5353 19.1412 16.1836 19.8214 16.428C19.9053 16.2225 19.9515 15.9972 19.9516 15.7615C19.9514 14.9974 19.4649 14.348 18.7849 14.1035Z" fill="#DD0F4B"/>
<path d="M18.6731 14.7715C18.6731 15.7366 19.4555 16.519 20.4206 16.519C21.3857 16.519 22.1681 15.7366 22.1681 14.7715C22.1681 13.8064 21.3857 13.024 20.4206 13.024C19.4555 13.024 18.6731 13.8064 18.6731 14.7715Z" fill="#DD0F4B"/>
<path d="M18.1569 13.992C17.1745 13.992 16.3778 14.788 16.3776 15.7703C16.3776 16.7528 17.1744 17.5497 18.1569 17.5497C18.7848 17.5496 19.3359 17.2237 19.6524 16.7324C18.8996 16.4387 18.3565 15.7258 18.3135 14.8797L18.3116 14.771C18.3116 14.5052 18.3626 14.2516 18.4525 14.0174C18.3563 14.0013 18.2577 13.992 18.1569 13.992ZM18.7843 14.1074C18.7009 14.3124 18.6542 14.5362 18.6541 14.771C18.6542 15.5312 19.1365 16.1767 19.811 16.4241C19.891 16.2217 19.9353 16.0011 19.9353 15.7703C19.9351 15.0091 19.4567 14.3613 18.7843 14.1074Z" fill="#DD0F4B"/>
</svg>
