<svg width="37" height="37" viewBox="0 0 37 37" fill="none" xmlns="http://www.w3.org/2000/svg">
<rect x="0.7" y="0.7" width="35.6" height="35.6" rx="17.7587" stroke="#DD0F4B" stroke-width="1.4"/>
<path d="M11.6533 31.3151C17.5996 33.2972 22.8027 32.141 24.6609 31.3151C24.3141 30.5222 21.791 29.8285 20.5728 29.5808C18.219 30.9435 18.0952 29.4569 16.3608 29.2711C14.9733 29.1224 12.6443 30.5718 11.6533 31.3151Z" fill="#DD0F4B"/>
<path d="M19.9998 16.8343C19.6635 17.4004 19.0709 17.7938 18.3809 17.8561C18.5983 20.0203 18.8643 23.8295 16.0574 28.2406C17.7915 28.4265 17.9155 29.9132 20.2689 28.5509C20.9258 26.8264 20.9646 22.8984 20.1857 16.8627C20.1229 16.8558 20.0608 16.8466 19.9998 16.8343ZM22.4946 15.1097C22.3379 16.0767 21.524 16.8228 20.5254 16.8734L20.4735 16.8744C20.9061 17.0756 21.5402 17.5058 21.968 18.2447L22.9595 17.0056C22.7118 17.7281 22.2904 19.2479 22.5876 19.5454C22.9592 19.9171 23.7641 22.1467 23.5164 23.2617C24.3836 22.4359 25.8334 20.0907 24.6938 17.3158C24.2558 16.743 23.3118 15.6529 22.4946 15.1097ZM19.3665 10.0682C18.7675 8.39564 16.3562 5.29933 11.5003 6.29027L13.1104 7.90031L15.2783 8.08627L14.0402 8.39653L15.7119 9.82061L17.0126 9.38702L16.2081 10.0682C16.9308 10.6875 18.3629 12.0628 18.3134 12.6081C15.7325 10.3783 9.9141 7.70224 7.28783 14.8377L9.64171 14.2181L10.6332 12.6081L10.0753 14.2181H11.6863L12.5535 12.2988L12.2432 13.9088L14.5354 13.5995L15.2783 12.794L14.969 13.9088H17.0831C14.1545 13.99 9.41533 15.5323 10.6332 21.3414L12.2432 19.5454C12.2432 18.9054 12.3057 17.5637 12.5535 17.3158L12.6768 18.6783C13.0484 18.7608 13.8047 18.7646 13.8542 18.1204C13.9038 17.4761 13.9569 16.4896 13.9776 16.0767L14.4738 17.6251C14.9865 17.4371 15.9311 17.0168 16.2698 16.6248C16.165 16.3922 16.0993 16.1376 16.0858 15.8693L16.0838 15.7616C16.0838 14.6348 16.9686 13.7146 18.0814 13.6583L18.1891 13.6553C18.3325 13.6553 18.4727 13.6691 18.608 13.6964C18.916 13.1786 19.438 12.8043 20.0536 12.6971L22.4016 11.184C22.3585 11.0258 22.2433 10.7508 22.06 10.5821C22.5436 10.8044 23.2536 11.0132 23.579 10.6878C23.975 10.2914 23.5791 9.65543 23.3314 9.38702C23.7445 9.65547 24.6815 10.1673 25.1274 10.0682C25.6852 9.94423 27.9151 9.13983 28.5344 9.2637C29.1517 9.38612 25.1888 6.16624 22.5259 7.52839C20.3951 8.61855 19.1606 11.3692 18.8096 12.6081L19.3665 10.0682ZM29.7109 18.4923C29.6508 15.2094 27.6694 9.6172 20.3237 12.6658L20.4167 12.6648C21.5163 12.6648 22.4188 13.5074 22.5142 14.5822C23.0465 14.3066 23.607 13.9301 23.533 13.6416L24.0743 15.0853L25.8703 15.8291V14.2181L26.8618 16.572C27.6256 16.9436 29.2648 17.8481 29.7109 18.4923ZM18.1891 13.9989C17.2155 13.999 16.4264 14.788 16.4264 15.7616C16.4264 16.0997 16.5236 16.4143 16.6887 16.6826C17.1156 17.0653 17.7692 17.4634 18.3134 17.1915C18.323 17.2941 18.335 17.4025 18.3467 17.5165C18.8951 17.4678 19.3709 17.1687 19.6592 16.7335C18.9029 16.4414 18.3564 15.7274 18.3134 14.8788L18.3114 14.7711C18.3114 14.5062 18.3621 14.253 18.4514 14.0194C18.3658 14.0066 18.2783 13.9989 18.1891 13.9989ZM20.4167 13.0074C19.8029 13.0075 19.2633 13.3223 18.9476 13.7982C19.7356 14.1029 20.2954 14.8662 20.2954 15.7616L20.2924 15.8693C20.281 16.0945 20.2331 16.3102 20.1564 16.5113C20.2415 16.5239 20.3281 16.5338 20.4167 16.5338C21.339 16.5338 22.0953 15.8251 22.1726 14.9228C22.1026 14.8886 22.0341 14.8597 21.968 14.8377C22.0326 14.8109 22.1035 14.7797 22.1785 14.7457C22.1651 13.7836 21.382 13.0074 20.4167 13.0074ZM18.7851 14.1036C18.7009 14.3094 18.654 14.5349 18.654 14.7711C18.6542 15.5351 19.1416 16.1827 19.8216 16.4271C19.9055 16.2217 19.9518 15.9971 19.9518 15.7616C19.9518 14.9974 19.4652 14.3481 18.7851 14.1036Z" fill="#DD0F4B"/>
<path d="M18.6733 14.7713C18.6733 15.7364 19.4557 16.5188 20.4208 16.5188C21.386 16.5188 22.1684 15.7364 22.1684 14.7713C22.1684 13.8062 21.386 13.0238 20.4208 13.0238C19.4557 13.0238 18.6733 13.8062 18.6733 14.7713Z" fill="#DD0F4B"/>
<path d="M18.1572 13.9919C17.1748 13.9919 16.378 14.7879 16.3778 15.7703C16.3778 16.7528 17.1746 17.5496 18.1572 17.5496C18.785 17.5495 19.3361 17.2237 19.6527 16.7324C18.8999 16.4387 18.3567 15.7257 18.3138 14.8796L18.3118 14.771C18.3118 14.5051 18.3629 14.2516 18.4527 14.0173C18.3566 14.0012 18.2579 13.9919 18.1572 13.9919ZM18.7845 14.1074C18.7011 14.3123 18.6544 14.5361 18.6544 14.771C18.6544 15.5312 19.1367 16.1766 19.8112 16.4241C19.8913 16.2217 19.9355 16.0011 19.9355 15.7703C19.9354 15.0091 19.4569 14.3612 18.7845 14.1074Z" fill="#DD0F4B"/>
</svg>
