<svg width="24" height="24" viewBox="0 0 24 24" fill="none" xmlns="http://www.w3.org/2000/svg">
<path d="M8.93755 11.8751C8.55179 11.8751 8.1698 11.7991 7.8134 11.6515C7.457 11.5039 7.13317 11.2875 6.86039 11.0147C6.58761 10.7419 6.37123 10.4181 6.22361 10.0617C6.07599 9.70529 6 9.32331 6 8.93754C6 8.55178 6.07599 8.16979 6.22361 7.81339C6.37123 7.457 6.58761 7.13316 6.86039 6.86039C7.13317 6.58761 7.457 6.37123 7.8134 6.22361C8.1698 6.07598 8.55179 6 8.93755 6C9.71663 6 10.4638 6.30949 11.0147 6.86039C11.5656 7.41128 11.8751 8.15846 11.8751 8.93754C11.8751 9.71663 11.5656 10.4638 11.0147 11.0147C10.4638 11.5656 9.71663 11.8751 8.93755 11.8751ZM8.93755 18.403C8.15846 18.403 7.41129 18.0935 6.86039 17.5426C6.30949 16.9917 6 16.2445 6 15.4654C6 14.6863 6.30949 13.9392 6.86039 13.3882C7.41129 12.8374 8.15846 12.5279 8.93755 12.5279C9.71663 12.5279 10.4638 12.8374 11.0147 13.3882C11.5656 13.9392 11.8751 14.6863 11.8751 15.4654C11.8751 16.2445 11.5656 16.9917 11.0147 17.5426C10.4638 18.0935 9.71663 18.403 8.93755 18.403ZM15.4654 11.8751C15.0797 11.8751 14.6977 11.7991 14.3413 11.6515C13.9848 11.5039 13.661 11.2875 13.3883 11.0147C13.1155 10.7419 12.8991 10.4181 12.7515 10.0617C12.6039 9.70529 12.5279 9.32331 12.5279 8.93754C12.5279 8.55178 12.6039 8.16979 12.7515 7.81339C12.8991 7.457 13.1155 7.13316 13.3883 6.86039C13.661 6.58761 13.9848 6.37123 14.3413 6.22361C14.6977 6.07598 15.0797 6 15.4654 6C16.2445 6 16.9917 6.30949 17.5426 6.86039C18.0935 7.41128 18.4029 8.15846 18.4029 8.93754C18.4029 9.71663 18.0935 10.4638 17.5426 11.0147C16.9917 11.5656 16.2445 11.8751 15.4654 11.8751ZM15.4654 18.403C14.6864 18.403 13.9392 18.0935 13.3883 17.5426C12.8374 16.9917 12.5279 16.2445 12.5279 15.4654C12.5279 14.6863 12.8374 13.9392 13.3883 13.3882C13.9392 12.8374 14.6864 12.5279 15.4654 12.5279C16.2445 12.5279 16.9917 12.8374 17.5426 13.3882C18.0935 13.9392 18.4029 14.6863 18.4029 15.4654C18.4029 16.2445 18.0935 16.9917 17.5426 17.5426C16.9917 18.0935 16.2445 18.403 15.4654 18.403Z" fill="#F61051"/>
</svg>
