<svg width="24" height="24" viewBox="0 0 24 24" fill="none" xmlns="http://www.w3.org/2000/svg">
<path d="M10.633 13.7107C10.633 13.2915 10.6673 13.4845 8.42883 9.00775C7.97151 8.09338 6.66201 8.09156 6.20392 9.00775C3.94662 13.5228 4.00051 13.3047 4.00051 13.7107C4.00051 14.8554 5.48491 15.7835 7.3165 15.7835C9.14809 15.7835 10.633 14.8554 10.633 13.7107ZM7.3165 9.56508L9.18204 13.2961H5.45097L7.3165 9.56508ZM20.582 13.7107C20.582 13.2915 20.6168 13.4845 18.3784 9.00775C17.921 8.09338 16.6115 8.09156 16.1534 9.00775C13.8961 13.5228 13.95 13.3047 13.95 13.7107C13.95 14.8554 15.4344 15.7835 17.266 15.7835C19.0976 15.7835 20.582 14.8554 20.582 13.7107ZM15.4005 13.2961L17.266 9.56508L19.1315 13.2961H15.4005ZM17.6806 16.6126H13.1204V8.97562C13.7295 8.709 14.1869 8.15996 14.3224 7.49226H17.6806C17.9097 7.49226 18.0951 7.30674 18.0951 7.0777V6.24857C18.0951 6.01953 17.9097 5.83401 17.6806 5.83401H13.9402C13.5619 5.33342 12.9672 5.00488 12.2913 5.00488C11.6153 5.00488 11.0206 5.33342 10.6423 5.83401H6.90194C6.67289 5.83401 6.48738 6.01953 6.48738 6.24857V7.0777C6.48738 7.30674 6.67289 7.49226 6.90194 7.49226H10.2602C10.3957 8.15971 10.8527 8.709 11.4621 8.97562V16.6126H6.90194C6.67289 16.6126 6.48738 16.7981 6.48738 17.0272V17.8563C6.48738 18.0853 6.67289 18.2709 6.90194 18.2709H17.6806C17.9097 18.2709 18.0951 18.0853 18.0951 17.8563V17.0272C18.0951 16.7981 17.9097 16.6126 17.6806 16.6126Z" fill="#F61051"/>
</svg>
