<svg width="24" height="24" viewBox="0 0 24 24" fill="none" xmlns="http://www.w3.org/2000/svg">
<path d="M3 12.5C3 10.567 4.567 9 6.5 9C7.7035 9 8.51959 9.4338 9.19914 10.1134C9.9255 10.8397 10.4851 11.8322 11.1258 12.9856L11.1595 13.0462C11.7605 14.1283 12.4431 15.3573 13.3866 16.3009C14.3946 17.3088 15.7035 18 17.5 18C20.5376 18 23 15.5376 23 12.5C23 9.46243 20.5376 7 17.5 7C15.9779 7 14.6003 7.61827 13.6045 8.61737C13.4442 8.77813 13.432 9.02965 13.5553 9.2202C13.8131 9.61853 14.0428 10.0098 14.2479 10.3718C14.3438 10.5409 14.5906 10.5441 14.708 10.3891C15.347 9.54518 16.3598 9 17.5 9C19.433 9 21 10.567 21 12.5C21 14.433 19.433 16 17.5 16C16.2965 16 15.4804 15.5662 14.8009 14.8866C14.0745 14.1603 13.5149 13.1678 12.8742 12.0144L12.8405 11.9538C12.2395 10.8717 11.5569 9.64265 10.6134 8.69914C9.60541 7.6912 8.2965 7 6.5 7C3.46243 7 1 9.46243 1 12.5C1 15.5376 3.46243 18 6.5 18C8.02208 18 9.39974 17.3817 10.3956 16.3826C10.5558 16.2218 10.568 15.9703 10.4447 15.7798C10.1869 15.3815 9.95724 14.9902 9.75215 14.6282C9.65629 14.4591 9.40941 14.4559 9.29202 14.6109C8.65298 15.4548 7.64016 16 6.5 16C4.567 16 3 14.433 3 12.5Z" fill="#F61051"/>
</svg>
