<svg width="24" height="24" viewBox="0 0 24 24" fill="none" xmlns="http://www.w3.org/2000/svg">
<path d="M9.48428 16.3982C10.1769 17.0797 11.0158 17.4205 12.0011 17.4205C12.9864 17.4205 13.8253 17.0797 14.518 16.3982C15.2106 15.7166 15.5569 14.8869 15.5569 13.9091C15.5569 13.4424 15.4662 12.9961 15.2847 12.5701C15.1032 12.1441 14.8458 11.7682 14.5124 11.4422L12.624 9.5873C12.2782 9.24759 11.724 9.24759 11.3781 9.5873L9.48983 11.4422C9.15647 11.7682 8.89905 12.1441 8.71755 12.5701C8.53606 12.9961 8.44531 13.4424 8.44531 13.9091C8.44531 14.8869 8.79163 15.7166 9.48428 16.3982Z" fill="#F61051"/>
<path fill-rule="evenodd" clip-rule="evenodd" d="M12.0006 21.8235C9.78378 21.8235 7.89613 21.0568 6.33768 19.5233C4.77923 17.9899 4 16.1231 4 13.9229C4 12.8728 4.20418 11.8686 4.61255 10.9102C5.02091 9.95177 5.60012 9.10587 6.35018 8.37248L11.3777 3.43398C11.7235 3.09427 12.2777 3.09427 12.6236 3.43398L17.6511 8.37248C18.4011 9.10587 18.9803 9.95177 19.3887 10.9102C19.797 11.8686 20.0012 12.8728 20.0012 13.9229C20.0012 16.1231 19.222 17.9899 17.6636 19.5233C16.1051 21.0568 14.2175 21.8235 12.0006 21.8235ZM12.002 19.8234C10.3394 19.8234 8.92369 19.2584 7.75485 18.1285C6.58601 16.9986 6.00159 15.623 6.00159 14.0018C6.00159 13.2281 6.15472 12.4881 6.461 11.7819C6.76727 11.0757 7.20168 10.4525 7.76422 9.91206L11.3847 6.41802C11.7292 6.08563 12.2749 6.08563 12.6194 6.41802L16.2399 9.91206C16.8024 10.4525 17.2368 11.0757 17.5431 11.7819C17.8494 12.4881 18.0025 13.2281 18.0025 14.0018C18.0025 15.623 17.4181 16.9986 16.2493 18.1285C15.0804 19.2584 13.6647 19.8234 12.002 19.8234Z" fill="#F61051"/>
</svg>
