<svg width="24" height="24" viewBox="0 0 24 24" fill="none" xmlns="http://www.w3.org/2000/svg">
<path fill-rule="evenodd" clip-rule="evenodd" d="M19.5319 3.99532C19.7655 3.897 20.0212 3.86309 20.2724 3.89712C20.5236 3.93115 20.761 4.03188 20.96 4.18882C21.159 4.34576 21.3124 4.55318 21.404 4.78948C21.4957 5.02578 21.5223 5.28234 21.4812 5.53243L19.3372 18.5374C19.1292 19.7918 17.7528 20.5112 16.6023 19.8864C15.64 19.3636 14.2107 18.5582 12.925 17.7178C12.2822 17.2971 10.3131 15.95 10.5551 14.9914C10.763 14.1718 14.0717 11.0919 15.9624 9.26082C16.7044 8.54142 16.366 8.12642 15.4897 8.78815C13.3135 10.4312 9.81959 12.9297 8.6644 13.633C7.64533 14.2531 7.11405 14.359 6.47879 14.2531C5.31982 14.0603 4.24498 13.7616 3.36771 13.3976C2.18226 12.906 2.23993 11.2763 3.36676 10.8017L19.5319 3.99532Z" fill="white"/>
</svg>
