<svg width="24" height="24" viewBox="0 0 24 24" fill="none" xmlns="http://www.w3.org/2000/svg">
<path d="M10.1574 14.6531H7.78005C7.47329 14.6531 7.24642 14.5187 7.09943 14.2501C6.95244 13.9816 6.96842 13.7224 7.14737 13.4725L12.8799 5.4147C13.0077 5.23981 13.1739 5.118 13.3783 5.04929C13.5828 4.98058 13.7938 4.9837 14.011 5.05866C14.2283 5.13362 14.3881 5.2648 14.4903 5.45219C14.5926 5.63958 14.6309 5.83946 14.6053 6.05183L13.9918 10.9052H16.9635C17.2959 10.9052 17.5291 11.0489 17.6633 11.3362C17.7976 11.6236 17.756 11.8922 17.5387 12.142L11.231 19.5252C11.0904 19.6876 10.9179 19.7938 10.7134 19.8437C10.5089 19.8937 10.3108 19.875 10.1191 19.7875C9.92733 19.7001 9.77715 19.5658 9.66851 19.3847C9.55987 19.2035 9.51833 19.0067 9.54389 18.7944L10.1574 14.6531Z" fill="#F61051"/>
</svg>
