<svg width="24" height="24" viewBox="0 0 24 24" fill="none" xmlns="http://www.w3.org/2000/svg">
<path d="M7.8 8.43223C7.8 8.34939 7.73284 8.28223 7.65 8.28223H4C2.9 8.28223 2 9.18223 2 10.2822V16.2822C2 17.3822 2.9 18.2822 4 18.2822H5V20.3165C5 20.6729 5.43086 20.8513 5.68284 20.5994L8 18.2822H13C14.1 18.2822 15 17.3822 15 16.2822V14.6128C15 14.5297 14.9349 14.4625 14.8518 14.4628C14.3371 14.4649 12.5615 14.4721 10.8 14.4774C9.14315 14.4823 7.8 13.1401 7.8 11.4832V8.43223ZM20 3.28223H11C9.9 3.28223 9 4.18223 9 5.28223V11.2822C9 12.3868 9.89543 13.2822 11 13.2822H16L18.3172 15.5994C18.5691 15.8513 19 15.6729 19 15.3165V13.2822H20C21.1 13.2822 22 12.3832 22 11.2822V5.28223C22 4.18223 21.1 3.28223 20 3.28223Z" fill="white"/>
</svg>
