<svg width="48" height="48" viewBox="0 0 48 48" fill="none" xmlns="http://www.w3.org/2000/svg">
<g clip-path="url(#clip0_0_765)">
<path d="M48 24C48 37.2552 37.2549 48 23.9995 48C10.7441 48 0 37.2542 0 24C0 10.7458 10.745 0 23.9995 0C37.254 0 48 10.7448 48 24Z" fill="#001347"/>
<path d="M10.6123 26.1816C11.5522 31.6778 15.79 36.0469 21.2178 37.1767V37.1775L21.3665 38.8767C14.8894 37.747 9.81748 32.5255 8.91589 25.9726L10.6123 26.1816ZM39.0842 25.9718C38.1817 32.5246 33.1126 37.7461 26.6337 38.8758L26.7824 37.1767C32.2101 36.047 36.4479 31.6769 37.3869 26.1816L37.3878 26.1807L39.0842 25.9718ZM21.6977 10.4897C16.0355 11.4561 11.5714 15.9238 10.6096 21.587L10.6086 21.5879L8.91406 21.7987C9.83572 15.0551 15.1668 9.72047 21.9076 8.79333L21.6977 10.4897ZM26.0915 8.7915C32.8315 9.71864 38.1634 15.0542 39.0851 21.7969L37.3896 21.5861C36.4278 15.9239 31.9637 11.4552 26.3015 10.4888L26.3023 10.4879L26.0915 8.7915Z" fill="white"/>
<path d="M27.1146 25.6707L41.517 23.8839L27.1155 22.0972L33.2331 14.65L25.7905 20.764L23.9983 6.32227L22.207 20.764L14.7644 14.65L20.882 22.0972L6.48047 23.8839L20.883 25.6707L14.7644 33.1187L22.1103 27.0833L23.9901 48.0002L25.8872 27.0833L33.2331 33.1187L27.1137 25.6707H27.1146ZM23.0237 24.8211L15.4725 23.8848L21.7152 23.1101L23.0529 22.944L23.9992 15.3125L24.7794 21.5962L24.9464 22.944L26.2842 23.1101L32.5268 23.8839L24.9756 24.8202L24.0001 35.9558L23.0246 24.8202L23.0237 24.8211Z" fill="#01D7EB"/>
</g>
<defs>
<clipPath id="clip0_0_765">
<rect width="48" height="48" fill="white"/>
</clipPath>
</defs>
</svg>
