<svg width="72" height="72" viewBox="0 0 72 72" fill="none" xmlns="http://www.w3.org/2000/svg">
<g clip-path="url(#clip0_0_652)">
<path d="M71.4399 30.0312L68.5599 26.2989L52.1016 15.6753C52.1556 15.9876 52.2141 16.2999 52.2816 16.6095C52.4128 17.1845 52.5571 17.7565 52.7145 18.3249C52.8081 18.6711 52.9047 19.0095 53.0043 19.3401C53.0358 19.4409 53.0655 19.5435 53.0943 19.6452C56.3469 30.096 62.8377 35.0613 71.5506 41.715C72.1179 38.1629 72.154 34.5461 71.6577 30.9834L71.4399 30.0312Z" fill="#FE6720"/>
<path d="M39.4594 45.0002C23.7994 37.9964 14.0092 23.7809 13.4386 9.47445C13.4329 9.33843 13.3887 9.20681 13.3112 9.09487C13.2337 8.98293 13.1261 8.89526 13.0007 8.84203C12.8754 8.7888 12.7376 8.77218 12.6032 8.79412C12.4689 8.81605 12.3435 8.87564 12.2416 8.96595C8.14319 12.5784 4.92033 17.076 2.81701 22.1181C0.713687 27.1602 -0.214982 32.6148 0.101304 38.0689C0.417589 43.523 1.97054 48.8336 4.6426 53.5988C7.31465 58.364 11.0358 62.4589 15.5243 65.5734C20.0128 68.688 25.1511 70.7405 30.5501 71.5758C35.9491 72.411 41.4674 72.007 46.6872 70.3944C51.907 68.7817 56.6915 66.0027 60.6786 62.2677C64.6656 58.5326 67.7507 53.9395 69.7003 48.836C69.7482 48.7133 69.7617 48.5799 69.7391 48.4502C69.7165 48.3205 69.6588 48.1995 69.5722 48.1003C69.4856 48.0011 69.3735 47.9275 69.248 47.8876C69.1226 47.8477 68.9886 47.8429 68.8606 47.8739C59.0144 50.2284 48.6633 49.2167 39.4594 45.0002ZM71.6551 31.0151C70.3816 28.0703 70.3816 28.0703 36.2347 15.7367C19.0465 9.52665 15.8533 3.53355 28.2976 0.820953C28.9036 0.690753 29.5147 0.574953 30.1309 0.473553C34.8691 -0.300299 39.7142 -0.120356 44.382 1.00283C49.0498 2.12602 53.4463 4.16984 57.3139 7.01447C61.1814 9.85909 64.4421 13.4473 66.9047 17.5686C69.3674 21.6899 70.9824 26.2614 71.6551 31.0151Z" fill="#F9D85E"/>
<path d="M38.87 0.119664L38.4551 0.0827637C39.0185 0.122364 39.5729 0.192564 40.1291 0.256464C40.0301 0.244764 39.9347 0.230364 39.8339 0.218664C39.5189 0.179964 39.2003 0.150264 38.87 0.119664Z" fill="#FE6720"/>
</g>
<defs>
<clipPath id="clip0_0_652">
<rect width="72" height="72" fill="white"/>
</clipPath>
</defs>
</svg>
