<svg width="72" height="72" viewBox="0 0 72 72" fill="none" xmlns="http://www.w3.org/2000/svg">
<g clip-path="url(#clip0_0_459)">
<path d="M15.043 56.8394C15.8002 56.1405 16.9659 56.1962 17.668 56.9565L20.2363 59.8452V59.8462C20.7244 60.4041 21.4852 60.7466 22.3076 60.7466H22.4961V60.6821H61.9092C61.45 61.1553 61.0293 61.6066 60.5605 62.0229H60.5596L60.5566 62.0269C46.1431 75.5518 23.5362 74.9515 10.0088 60.7974C11.0391 60.7219 11.9967 60.2616 12.6758 59.4614L12.6768 59.4624L14.9258 56.9546L15.043 56.8394ZM29.2451 38.8433C30.0714 38.1991 31.1763 38.2646 31.875 39.021V39.02L34.4443 41.9116C34.934 42.5345 35.695 42.8745 36.5146 42.8745H71.2568C70.6822 45.8863 69.6958 48.7796 68.4092 51.4966H32.1426C31.4928 51.4965 30.836 51.2012 30.3555 50.6606L27.7832 47.7671C27.3608 47.2762 26.7307 46.9966 26.0996 46.9966H25.9717C25.3349 46.9966 24.7742 47.2799 24.3594 47.6948L24.3564 47.6978L21.2734 50.9077C20.8477 51.2701 20.3792 51.4966 19.8643 51.4966H3.59277C2.30592 48.7191 1.31904 45.8261 0.744141 42.8745H23.8496C24.9948 42.8745 26.0772 42.4024 26.8223 41.522L29.0625 39.0269L29.2451 38.8433ZM42.0381 20.2642C42.8643 19.6204 43.9693 19.6856 44.668 20.4419L47.2373 23.3325V23.3335L47.2451 23.3413C47.7907 23.8866 48.5441 24.2318 49.3066 24.2319H55.4824V24.2964H69.999C70.9129 27.0095 71.5292 29.8977 71.792 32.7896H45.1934C44.5432 32.7896 43.8857 32.4943 43.4053 31.9536L40.834 29.0601C40.4115 28.5691 39.7815 28.2897 39.1504 28.2896H39.0215C38.3846 28.2896 37.8239 28.5729 37.4092 28.9878L37.4062 28.9907L34.3232 32.2026C33.9713 32.5544 33.44 32.7896 32.9141 32.7896H0.208008C0.470928 29.8976 1.08722 27.0096 2.00098 24.2964H36.6426C37.784 24.2964 38.9326 23.8268 39.6797 22.9438L39.6787 22.9429L41.8643 20.439L42.0381 20.2642ZM14.1924 7.35107C30.0139 -4.53063 52.3978 -1.51168 64.4775 14.0825H57.9219C57.2605 14.0825 56.6068 13.8425 56.1338 13.3101L53.5625 10.4175H53.5635L53.5547 10.4097L53.3887 10.2593C52.9792 9.92488 52.431 9.71153 51.8789 9.71143H51.75C51.1131 9.71143 50.5524 9.99479 50.1377 10.4097L50.1348 10.4126L47.0518 13.6235C46.697 13.9784 46.2433 14.1992 45.6797 14.0864L45.6621 14.0825H7.39258C9.25576 11.6875 11.3746 9.55317 13.7041 7.72705L14.1924 7.35107Z" fill="white" stroke="white" stroke-width="0.378"/>
</g>
<defs>
<clipPath id="clip0_0_459">
<rect width="72" height="72" fill="white"/>
</clipPath>
</defs>
</svg>
