<svg width="48" height="48" viewBox="0 0 48 48" fill="none" xmlns="http://www.w3.org/2000/svg">
<g clip-path="url(#clip0_0_850)">
<path fill-rule="evenodd" clip-rule="evenodd" d="M24.0015 0.0458984C37.2313 0.0458984 47.9562 10.7699 47.9562 23.9986C47.9562 37.2273 37.2313 47.9513 24.0015 47.9513C10.7718 47.9513 0.046875 37.2273 0.046875 23.9986C0.046875 10.7699 10.7718 0.0458984 24.0015 0.0458984Z" fill="#282750"/>
<path fill-rule="evenodd" clip-rule="evenodd" d="M23.9526 10.1809C31.5849 10.1809 37.7722 16.3682 37.7722 24.0005C37.7722 31.6328 31.5849 37.8201 23.9526 37.8201C16.3203 37.8201 10.133 31.6328 10.133 24.0005C10.133 16.3682 16.3203 10.1809 23.9526 10.1809Z" fill="#1B1E36"/>
<path fill-rule="evenodd" clip-rule="evenodd" d="M24.0696 3.49609C23.6579 3.49609 23.166 3.94879 22.6693 4.89351C22.1377 5.90476 21.6465 7.39696 21.2297 9.27148C20.3688 13.1429 19.875 18.3932 19.875 23.9987C19.875 29.6042 20.3688 34.8546 21.2297 38.726C21.6465 40.6005 22.1377 42.0927 22.6693 43.1039C23.166 44.0487 23.6579 44.5014 24.0696 44.5014C24.4813 44.5014 24.9732 44.0487 25.4699 43.1039C26.0015 42.0927 26.4927 40.6005 26.9095 38.726C27.7705 34.8546 28.2643 29.6042 28.2643 23.9987C28.2643 18.3932 27.7705 13.1429 26.9095 9.27148C26.4927 7.39696 26.0015 5.90476 25.4699 4.89351C24.9732 3.94879 24.4813 3.49609 24.0696 3.49609Z" stroke="#2833D5" stroke-width="1.3125"/>
<path fill-rule="evenodd" clip-rule="evenodd" d="M41.8384 13.7488C41.6326 13.3926 40.9942 13.1932 39.9271 13.2356C38.7849 13.2812 37.2462 13.6022 35.4133 14.1788C31.6279 15.3695 26.8311 17.5675 21.9735 20.3704C17.1158 23.1733 12.8128 26.226 9.88832 28.9069C8.47226 30.205 7.42472 31.3763 6.81422 32.3421C6.24392 33.2443 6.09758 33.8962 6.30326 34.2522C6.509 34.6084 7.1474 34.8079 8.2145 34.7653C9.35672 34.7198 10.8955 34.3988 12.7284 33.8222C16.5138 32.6315 21.3105 30.4336 26.1682 27.6306C31.0259 24.8277 35.3289 21.775 38.2533 19.0941C39.6694 17.796 40.7169 16.6247 41.3275 15.6589C41.8977 14.7568 42.0441 14.1048 41.8384 13.7488Z" stroke="#2833D5" stroke-width="1.3125"/>
<path fill-rule="evenodd" clip-rule="evenodd" d="M41.8384 34.2522C42.0441 33.8962 41.8978 33.2443 41.3275 32.3421C40.7169 31.3763 39.6694 30.205 38.2534 28.9069C35.3289 26.226 31.0259 23.1733 26.1682 20.3704C21.3105 17.5675 16.5138 15.3695 12.7284 14.1788C10.8955 13.6022 9.35672 13.2812 8.2145 13.2356C7.1474 13.1932 6.509 13.3926 6.30326 13.7488C6.09758 14.1048 6.24392 14.7568 6.81422 15.6589C7.42472 16.6247 8.47226 17.796 9.88832 19.0941C12.8128 21.775 17.1158 24.8277 21.9735 27.6306C26.8311 30.4336 31.6279 32.6315 35.4133 33.8222C37.2462 34.3988 38.7849 34.7198 39.9271 34.7653C40.9942 34.8079 41.6326 34.6084 41.8384 34.2522Z" stroke="#2833D5" stroke-width="1.3125"/>
<path fill-rule="evenodd" clip-rule="evenodd" d="M10.6662 18.126C11.4807 18.126 12.141 18.7866 12.141 19.6015C12.141 20.4164 11.4807 21.077 10.6662 21.077C9.85165 21.077 9.19141 20.4164 9.19141 19.6015C9.19141 18.7866 9.85165 18.126 10.6662 18.126Z" fill="#B7B9C8"/>
<path fill-rule="evenodd" clip-rule="evenodd" d="M34.1044 13.0742C34.9193 13.0742 35.5799 13.7348 35.5799 14.5497C35.5799 15.3647 34.9193 16.0253 34.1044 16.0253C33.2895 16.0253 32.6289 15.3647 32.6289 14.5497C32.6289 13.7348 33.2895 13.0742 34.1044 13.0742Z" fill="#B7B9C8"/>
<path fill-rule="evenodd" clip-rule="evenodd" d="M21.1005 36.2344C21.9154 36.2344 22.576 36.8947 22.576 37.7092C22.576 38.5237 21.9154 39.184 21.1005 39.184C20.2856 39.184 19.625 38.5237 19.625 37.7092C19.625 36.8947 20.2856 36.2344 21.1005 36.2344Z" fill="#B7B9C8"/>
<path fill-rule="evenodd" clip-rule="evenodd" d="M23.9864 21.4902C25.3661 21.4902 26.4845 22.6087 26.4845 23.9884C26.4845 25.368 25.3661 26.4865 23.9864 26.4865C22.6067 26.4865 21.4883 25.368 21.4883 23.9884C21.4883 22.6087 22.6067 21.4902 23.9864 21.4902Z" fill="#B7B9C8"/>
</g>
<defs>
<clipPath id="clip0_0_850">
<rect width="48" height="48" fill="white"/>
</clipPath>
</defs>
</svg>
