<svg width="72" height="72" viewBox="0 0 72 72" fill="none" xmlns="http://www.w3.org/2000/svg">
<g clip-path="url(#clip0_0_627)">
<mask id="mask0_0_627" style="mask-type:luminance" maskUnits="userSpaceOnUse" x="0" y="0" width="72" height="72">
<path d="M72 0H0V72H72V0Z" fill="white"/>
</mask>
<g mask="url(#mask0_0_627)">
<path d="M27.917 3.50391C32.3374 -0.916292 39.5044 -0.916193 43.9248 3.50391L68.3379 27.917C72.7582 32.3374 72.7581 39.5044 68.3379 43.9248L43.9248 68.3379C39.5044 72.7581 32.3374 72.7582 27.917 68.3379L3.50391 43.9248C-0.9162 39.5044 -0.916285 32.3374 3.50391 27.917L27.917 3.50391ZM24.4131 12.7666C17.9529 12.7666 12.716 18.0038 12.7158 24.4639V47.4805C12.7158 53.9407 17.9528 59.1777 24.4131 59.1777H47.4297C53.8897 59.1775 59.127 53.9405 59.127 47.4805V24.4639C59.1268 18.0039 53.8896 12.7668 47.4297 12.7666H24.4131Z" fill="white" stroke="white" stroke-width="0.378"/>
<path d="M32.7977 16.575C34.5215 14.8511 37.3172 14.8502 39.0409 16.574V16.575L55.3163 32.8494C57.0399 34.5732 57.0399 37.3689 55.3163 39.0925L39.0409 55.3679C37.3172 57.0915 34.5216 57.0915 32.7977 55.3679L16.5223 39.0925C14.7986 37.3689 14.7986 34.5732 16.5223 32.8494L32.7977 16.575Z" fill="white" stroke="white" stroke-width="0.378"/>
</g>
</g>
<defs>
<clipPath id="clip0_0_627">
<rect width="72" height="72" fill="white"/>
</clipPath>
</defs>
</svg>
