<svg width="72" height="72" viewBox="0 0 72 72" fill="none" xmlns="http://www.w3.org/2000/svg">
<g clip-path="url(#clip0_0_479)">
<path d="M72 36C72 16.1178 55.8823 0 36 0C16.1178 0 0 16.1178 0 36C0 55.8823 16.1178 72 36 72C55.8823 72 72 55.8823 72 36Z" fill="#E6007A"/>
<path d="M44.8916 23.9048H53.7979V29.605H44.8916V40.103C44.8916 44.0011 48.0511 47.1655 51.9551 47.1655H53.7979V52.9175H51.874C47.7998 52.9175 44.4282 51.6715 42.0771 49.4644C39.7272 47.2582 38.3828 44.0789 38.3828 40.1841V29.605H25.2812C24.1141 29.6051 23.3575 30.2714 23.1133 31.106C22.871 31.9344 23.1389 32.9145 23.9736 33.5327L23.9785 33.5366L30.9766 38.2788L30.9854 38.2847C37.7919 42.2552 35.5244 52.9116 26.6113 52.9116H17.1689V47.1548H26.6113C27.7755 47.1548 28.5472 46.506 28.8076 45.686C29.0664 44.8704 28.8127 43.9034 27.9775 43.2847L27.9717 43.2808L20.916 38.5376L20.9082 38.5327L20.5957 38.3423C14.1768 34.2336 16.5628 23.9051 25.2812 23.9048H38.3828V17.5376L44.8916 14.062V23.9048Z" fill="white" stroke="white" stroke-width="0.315"/>
</g>
<defs>
<clipPath id="clip0_0_479">
<rect width="72" height="72" fill="white"/>
</clipPath>
</defs>
</svg>
