<svg width="72" height="72" viewBox="0 0 72 72" fill="none" xmlns="http://www.w3.org/2000/svg">
<g clip-path="url(#clip0_0_645)">
<path d="M35.8021 71.6043C55.5751 71.6043 71.6043 55.5751 71.6043 35.8021C71.6043 16.0292 55.5751 0 35.8021 0C16.0292 0 0 16.0292 0 35.8021C0 55.5751 16.0292 71.6043 35.8021 71.6043Z" fill="#C85862"/>
<path d="M29.4346 19.3992C34.188 17.5717 39.2493 17.989 43.459 20.1277L43.8633 20.3396C44.1946 20.5196 44.2681 20.9561 44.0186 21.2273C43.8801 21.3774 43.6754 21.4399 43.4844 21.3972L43.4043 21.3718L42.8047 21.1531C39.7866 20.1249 36.4064 20.1072 33.1982 21.3406C27.5468 23.5134 24.092 28.9254 24.1279 34.6492L24.1299 35.0242L24.4707 34.8679C27.366 33.5444 30.5242 32.2158 33.8564 30.9343C37.418 29.565 40.8674 28.37 44.082 27.3728C45.8107 26.8367 47.4708 26.358 49.0439 25.9402C49.375 25.8523 49.7016 25.7667 50.0244 25.6843H50.0254C51.8942 25.2072 53.6272 24.8221 55.1885 24.5359C57.6486 24.0852 59.6749 23.8817 61.1387 23.9441C61.8714 23.9754 62.4485 24.0724 62.8643 24.2302C63.2812 24.3885 63.5032 24.5936 63.5898 24.8201C63.6767 25.0464 63.6485 25.3477 63.4443 25.7449C63.2407 26.141 62.8772 26.6006 62.3535 27.115C61.3075 28.1424 59.6655 29.3484 57.5361 30.6619C56.395 31.3665 55.1163 32.1002 53.7178 32.8523C53.516 32.9608 53.2721 32.868 53.1836 32.6658L53.1553 32.573C53.007 31.7125 52.7915 30.8544 52.5107 30.0037L52.3867 29.6394C52.3371 29.4983 52.2852 29.3412 52.2275 29.1902L52.2266 29.1863L52.2246 29.1814C52.0842 28.8205 51.6973 28.6204 51.3213 28.7136C51.2013 28.7435 51.0767 28.775 50.9551 28.8054H50.9541C49.2417 29.2383 47.346 29.7679 45.2783 30.4041C42.2216 31.3452 38.789 32.5217 35.0186 33.9714C31.1733 35.4497 27.7806 36.9032 24.8398 38.2761L24.6504 38.365L24.71 38.5652C24.7626 38.7428 24.8179 38.9205 24.877 39.0984L25.0674 39.6316C25.203 39.9872 25.3557 40.3297 25.5146 40.6638C26.0967 41.8856 26.8346 42.9918 27.6973 43.9636C31.4943 48.2412 37.6767 49.948 43.3281 47.7751C46.7513 46.4593 49.3671 43.9533 50.8916 40.9119C50.9944 40.7074 51.2141 40.5866 51.4443 40.6082C51.8116 40.6425 52.0494 41.0163 51.9229 41.3718C50.2886 45.9719 46.7354 49.8544 41.8291 51.741C37.0178 53.591 32.8672 52.9059 29.2744 51.5691C27.4742 50.8992 25.8174 50.0672 24.2832 49.3054C22.7565 48.5474 21.3402 47.8535 20.0449 47.4812C17.4248 46.7282 14.4662 46.9868 12.1025 47.1335C10.9082 47.2077 9.87659 47.2528 9.09082 47.1414C8.30019 47.0291 7.84657 46.7717 7.67383 46.321C7.50118 45.8701 7.66706 45.3749 8.17969 44.7615C8.68912 44.152 9.48499 43.4941 10.4219 42.7488C12.2764 41.2735 14.648 39.4825 16.0918 37.1667C16.8057 36.0217 17.3942 34.5563 18.0225 32.9695C18.6537 31.3752 19.3295 29.6473 20.2197 27.9431C21.9968 24.5414 24.624 21.2502 29.4355 19.4001L29.4346 19.3992Z" fill="white" stroke="white" stroke-width="0.484615"/>
</g>
<defs>
<clipPath id="clip0_0_645">
<rect width="72" height="72" fill="white"/>
</clipPath>
</defs>
</svg>
