<svg width="72" height="72" viewBox="0 0 72 72" fill="none" xmlns="http://www.w3.org/2000/svg">
<g clip-path="url(#clip0_0_618)">
<path d="M36.0332 0.182861C55.8338 0.182861 71.8865 16.2347 71.8867 36.0354C71.8867 55.8361 55.8339 71.8889 36.0332 71.8889C16.2325 71.8887 0.180664 55.836 0.180664 36.0354C0.180887 16.2349 16.2327 0.183084 36.0332 0.182861Z" fill="white" stroke="white" stroke-width="0.150898"/>
<path d="M39.2843 31.6265L56.3322 14.5792L49.8646 8.1123L36.0509 21.9258L22.2373 8.1123L15.7701 14.5792L32.8175 31.6265C33.7104 32.5193 34.8807 32.9659 36.0509 32.9659C37.2212 32.9659 38.3914 32.5197 39.2843 31.6265ZM63.9629 49.8379L50.1493 36.0244L63.9629 22.2105L57.4957 15.7437L40.4487 32.791C38.6632 34.5768 38.6632 37.472 40.4487 39.2578L57.4957 56.3053L63.9629 49.8379ZM36.0272 50.146L49.8409 63.9596L56.3076 57.4926L39.2606 40.4453C37.4744 38.6594 34.5797 38.6594 32.7934 40.4453L15.7463 57.4926L22.2136 63.9596L36.0272 50.146ZM31.6295 39.2812C32.4874 38.4234 32.969 37.2606 32.969 36.0478C32.969 34.8351 32.4874 33.6718 31.6295 32.8143L14.5824 15.767L8.11523 22.2343L21.9289 36.0478L8.11523 49.8616L14.5824 56.3286L31.6295 39.2812Z" fill="black"/>
</g>
<defs>
<clipPath id="clip0_0_618">
<rect width="72" height="72" fill="white"/>
</clipPath>
</defs>
</svg>
