<svg width="72" height="72" viewBox="0 0 72 72" fill="none" xmlns="http://www.w3.org/2000/svg">
<g clip-path="url(#clip0_0_404)">
<path d="M72 36C72 16.3901 55.8823 0.493164 36 0.493164C16.1177 0.493164 0 16.3901 0 36C0 55.6099 16.1177 71.5069 36 71.5069C55.8823 71.5069 72 55.6099 72 36Z" fill="#A835F8"/>
<path d="M24.5443 17.5632C25.3169 17.184 26.1578 17.2009 26.7933 17.5603L35.9808 22.9148C36.7377 23.3972 37.1019 24.1304 37.1019 24.8582V28.4246L33.766 30.3396V27.4714C33.766 26.2668 33.0975 25.1858 32.1361 24.6365H32.1371L27.1957 21.6707L27.1791 21.6599L27.1615 21.6511L26.9623 21.5583C25.96 21.1262 24.8333 21.1466 23.9193 21.6638L23.9154 21.6658L18.975 24.5134L18.9662 24.5193L18.9574 24.5242C17.8963 25.1915 17.3373 26.2566 17.3373 27.3533V33.0496C17.3373 34.2588 18.0108 35.3439 18.9779 35.8914V35.8904L23.9076 38.8503L23.9252 38.8611L23.9427 38.8699C24.9926 39.395 26.21 39.4089 27.1849 38.8572L27.1937 38.8523L33.5121 35.1023L37.8685 32.7205L37.8744 32.7166L37.8812 32.7126L44.2933 28.9636C45.0686 28.5774 45.9148 28.5911 46.5541 28.9509V28.9519L55.849 34.2976V34.2986C56.6158 34.7809 56.9847 35.5183 56.9847 36.2507V47.0691C56.9846 47.8977 56.519 48.6414 55.8705 49.0085L55.8666 49.0105L46.5717 54.3572C45.8446 54.7177 45.0568 54.7273 44.4349 54.4294L44.3129 54.366L35.0131 49.0164C34.2516 48.5341 33.8852 47.799 33.8851 47.0691V43.6062L37.2211 41.6912V44.4431C37.2212 45.651 37.8932 46.734 38.8588 47.282V47.283L43.8129 50.1306L43.8256 50.1384L43.8392 50.1453C44.8891 50.6705 46.1064 50.6844 47.0814 50.1326L47.0892 50.1277L51.9115 47.2791L51.9174 47.2761L51.9232 47.2722C52.9842 46.6048 53.5432 45.5397 53.5433 44.4431V38.7458C53.5432 37.538 52.8711 36.455 51.9056 35.907H51.9066L46.9652 33.0583L46.9525 33.0505L46.9388 33.0437L46.7396 32.9519C45.7373 32.5196 44.6107 32.5391 43.6967 33.0564L43.6927 33.0583L37.3754 36.7029L33.0033 39.2117L33.0023 39.2126L26.7006 42.8464C25.9737 43.2065 25.1864 43.2173 24.5648 42.9197L24.4427 42.8552L15.1498 37.5105H15.1508C14.384 37.0283 14.015 36.2908 14.015 35.5583V24.8582C14.015 24.1281 14.3891 23.4066 15.1068 23.0476L15.1215 23.0408L15.1351 23.032L24.5443 17.5632Z" fill="white" stroke="white" stroke-width="1.03562"/>
</g>
<defs>
<clipPath id="clip0_0_404">
<rect width="72" height="72" fill="white"/>
</clipPath>
</defs>
</svg>
