<svg width="48" height="48" viewBox="0 0 48 48" fill="none" xmlns="http://www.w3.org/2000/svg">
<g clip-path="url(#clip0_0_833)">
<path d="M24 48C37.2548 48 48 37.2548 48 24C48 10.7452 37.2548 0 24 0C10.7452 0 0 10.7452 0 24C0 37.2548 10.7452 48 24 48Z" fill="#0B0012"/>
<path d="M24 48C37.2548 48 48 37.2548 48 24C48 10.7452 37.2548 0 24 0C10.7452 0 0 10.7452 0 24C0 37.2548 10.7452 48 24 48Z" fill="url(#paint0_radial_0_833)"/>
<path fill-rule="evenodd" clip-rule="evenodd" d="M13.0931 31.6862C12.8092 32.1724 13.1581 32.7842 13.7201 32.7857L18.0634 32.7974L29.5546 24.4798L22.8649 32.8164L24.1079 32.818L28.4151 32.831L30.5005 26.26L31.2845 32.8417L34.4957 32.8498C35.0577 32.8512 35.4098 32.2413 35.1284 31.7536L29.966 22.8039L24.7967 13.8415C24.5169 13.3564 23.8189 13.3546 23.5367 13.8383L21.8699 16.6943L27.2414 20.668L20.4197 19.164L18.3113 22.7681L17.6231 23.9539L28.3248 22.3698L15.1718 28.1256L13.0931 31.6862ZM31.4659 21.5887C31.7481 21.6513 31.9138 21.9456 31.8213 22.2201L31.0133 24.6192L28.9424 21.0291L31.4659 21.5887Z" fill="#35354A"/>
</g>
<defs>
<radialGradient id="paint0_radial_0_833" cx="0" cy="0" r="1" gradientUnits="userSpaceOnUse" gradientTransform="translate(7.05263 40.6317) rotate(-45.9276) scale(48.2756)">
<stop stop-color="#BDBFFF"/>
<stop offset="1" stop-color="#CCF4ED"/>
</radialGradient>
<clipPath id="clip0_0_833">
<rect width="48" height="48" fill="white"/>
</clipPath>
</defs>
</svg>
