<svg width="72" height="72" viewBox="0 0 72 72" fill="none" xmlns="http://www.w3.org/2000/svg">
<g clip-path="url(#clip0_0_660)">
<path d="M-0.00585938 36.0073C-0.00585938 31.571 3.58687 27.9782 8.02323 27.9782C12.4596 27.9782 16.0523 24.3855 16.0523 19.9492C16.0523 15.5128 19.6596 11.9055 24.096 11.9055C28.5323 11.9055 32.1251 15.4982 32.1251 19.9346C32.1251 24.371 28.5323 27.9637 24.096 27.9637C19.6596 27.9637 16.0669 31.5564 16.0669 35.9928C16.0669 40.4292 19.6596 44.0219 24.096 44.0219C28.5323 44.0219 32.1251 47.6146 32.1251 52.051C32.1251 56.4873 28.5323 60.0801 24.096 60.0801C19.6596 60.0801 16.0669 56.4873 16.0669 52.051C16.0669 47.6146 12.4741 44.0219 8.03778 44.0219C3.60141 44.0219 -0.00585938 40.4437 -0.00585938 36.0073Z" fill="black"/>
<path d="M72.007 36.0073C72.007 40.4437 68.4143 44.0364 63.9779 44.0364C59.5415 44.0364 55.9488 47.6292 55.9488 52.0655C55.9488 56.5019 52.3561 60.0946 47.9197 60.0946C43.4834 60.0946 39.8906 56.5019 39.8906 52.0655C39.8906 47.6292 43.4834 44.0364 47.9197 44.0364C52.3561 44.0364 55.9488 40.4437 55.9488 36.0073C55.9488 31.571 52.3561 27.9782 47.9197 27.9782C43.4834 27.9782 39.8906 24.3855 39.8906 19.9492C39.8906 15.5128 43.4688 11.9055 47.9052 11.9055C52.3415 11.9055 55.9343 15.4982 55.9343 19.9346C55.9343 24.371 59.527 27.9637 63.9634 27.9637C68.4143 27.9782 72.007 31.571 72.007 36.0073Z" fill="black"/>
<path d="M43.8933 36.007C43.8933 40.3124 40.4024 43.8179 36.0824 43.8179C31.7624 43.8179 28.2715 40.327 28.2715 36.007C28.2715 31.7015 31.7624 28.196 36.0824 28.196C40.3878 28.196 43.8933 31.687 43.8933 36.007Z" fill="black"/>
</g>
<defs>
<clipPath id="clip0_0_660">
<rect width="72" height="72" fill="white"/>
</clipPath>
</defs>
</svg>
