<svg width="72" height="72" viewBox="0 0 72 72" fill="none" xmlns="http://www.w3.org/2000/svg">
<g clip-path="url(#clip0_0_440)">
<path d="M72 36C72 16.1178 55.8823 0 36 0C16.1178 0 0 16.1178 0 36C0 55.8823 16.1178 72 36 72C55.8823 72 72 55.8823 72 36Z" fill="#A835F8"/>
<path fill-rule="evenodd" clip-rule="evenodd" d="M58.0035 36.6542C57.999 36.803 57.7964 36.8423 57.738 36.7053C57.7129 36.6461 57.6873 36.5868 57.6612 36.5274C57.6134 36.4188 57.6268 36.2925 57.6981 36.1976C57.7127 36.1781 57.7427 36.1388 57.7785 36.092C57.8748 35.9661 58.0137 35.985 58.0137 36.1246C58.0137 36.3078 58.0093 36.4665 58.0035 36.6542ZM56.9381 33.7447C56.774 34.0402 56.3533 34.0538 56.1712 33.7689C56.1429 33.7249 56.1144 33.6808 56.0857 33.6366C55.4291 32.6284 54.6735 31.6387 53.8294 30.6769C53.6223 30.4407 53.7917 30.0701 54.106 30.0699H54.1135C56.0857 30.0699 57.1196 30.5572 57.4352 31.152C57.6985 31.6495 57.6178 32.5196 56.9381 33.7447ZM56.4973 44.0582C56.3915 44.3273 56.2808 44.5947 56.1645 44.8596C56.1464 44.8961 56.1293 44.933 56.1105 44.9692C55.3846 46.3664 54.1666 47.4666 52.539 48.2322C52.1737 48.4037 51.7742 48.0696 51.883 47.6811C52.4235 45.7467 52.8325 43.6489 53.0976 41.4496C53.147 41.0396 53.3492 40.6632 53.6618 40.3929C54.3311 39.8138 54.9562 39.2355 55.5312 38.6614L55.5375 38.6549C55.8204 38.3726 56.303 38.4941 56.4183 38.8771C56.9864 40.7654 57.0179 42.5244 56.4973 44.0582ZM52.0729 51.042C51.9074 51.219 51.7383 51.3939 51.5662 51.5661C51.2661 51.8657 50.959 52.1555 50.6452 52.4355C50.4472 52.6118 50.1479 52.3913 50.2599 52.1508C50.2918 52.0822 50.3235 52.0131 50.355 51.9433C50.4869 51.6527 50.6143 51.3544 50.7382 51.0504C50.7675 50.9787 50.8293 50.9253 50.9044 50.906C51.2164 50.8268 51.5208 50.7394 51.8171 50.6437C52.0574 50.5665 52.2456 50.8577 52.0729 51.042ZM48.8239 49.2958C48.1668 49.391 47.4759 49.4525 46.7531 49.478C44.9894 49.5398 43.1245 49.3875 41.2089 49.0348C40.9754 48.992 40.9304 48.6762 41.1422 48.5691C41.56 48.3575 41.9781 48.1413 42.396 47.9198C45.3272 46.3662 48.0621 44.6679 50.4562 42.9267C50.6358 42.7961 50.8832 42.9502 50.8468 43.1693C50.5148 45.1647 50.055 47.0433 49.4776 48.7485C49.3792 49.039 49.1275 49.2518 48.8239 49.2958ZM48.1463 51.9543C46.5747 55.0453 44.6392 56.7806 42.7631 56.7456C40.7241 56.7094 38.6908 54.5859 37.1851 50.9202L37.1833 50.9162C37.0878 50.6834 37.1976 50.4171 37.4281 50.317C37.4441 50.3099 37.4601 50.303 37.4761 50.2959C37.5749 50.2529 37.6859 50.2451 37.7899 50.2745C40.6064 51.0648 43.3816 51.4774 45.9816 51.4774C46.2642 51.4774 46.5448 51.4726 46.823 51.4629C47.1487 51.4513 47.4693 51.4329 47.7841 51.4079C48.0761 51.3847 48.2793 51.6932 48.1463 51.9543ZM38.84 57.8322C37.9056 57.9523 36.9574 58.0138 36 58.0138C31.721 58.0138 27.6284 56.8012 24.1147 54.5384C23.8729 54.3826 23.9757 54.0075 24.2629 53.9943C24.3226 53.9915 24.3782 53.9884 24.4272 53.9855C25.3202 53.9275 26.2992 53.7966 27.3602 53.5922C29.6168 53.1582 32.1253 52.4135 34.7519 51.4106C34.9874 51.3209 35.2502 51.4377 35.3461 51.6708L35.3479 51.6749C36.3657 54.1532 37.6185 56.0258 39.0252 57.217C39.2577 57.4141 39.1422 57.7933 38.84 57.8322ZM26.1097 42.4081C28.0495 40.8285 30.3224 39.2524 32.8156 37.7603C32.8691 40.9491 33.2188 44.0107 33.8376 46.7761C32.9129 46.3817 31.991 45.9475 31.0771 45.4728C29.3071 44.5528 27.6416 43.5224 26.1097 42.4081ZM20.0772 50.9524C19.6143 50.0794 20.2124 48.0569 23.2509 44.9831L23.2524 44.9816C23.5697 44.6611 23.5392 44.135 23.1851 43.8559C23.0633 43.7603 22.9425 43.6636 22.8224 43.5669C22.5198 43.3224 22.0819 43.3448 21.8071 43.62C21.7468 43.6802 21.702 43.7256 21.6888 43.7391C20.1699 45.2981 19.1069 46.7413 18.5114 48.0394C18.3426 48.4072 17.8328 48.4469 17.6096 48.1093C15.2523 44.546 13.9862 40.3705 13.9862 35.9999C13.9862 34.4374 14.1486 32.8996 14.4644 31.4061C14.512 31.1801 14.8308 31.1656 14.8977 31.3866C15.3545 32.8945 16.0978 34.4542 17.1251 36.0313C18.5077 38.1548 20.3311 40.196 22.4919 42.0685C23.2295 42.7076 24.0085 43.3258 24.8209 43.9221C26.4678 45.1307 28.2574 46.246 30.1614 47.2352C31.0053 47.6737 31.8273 48.0923 32.669 48.4713C33.1377 48.6821 33.671 48.6986 34.1493 48.5108C34.5462 48.3554 34.946 48.1937 35.3481 48.0256C35.7854 47.8431 36.0226 47.3664 35.9067 46.9068C35.8922 46.8494 35.8808 46.8033 35.8743 46.7761C35.2115 43.9865 34.843 40.8462 34.7996 37.5569L34.7983 37.5576C34.7979 37.5186 34.7981 37.4788 34.7977 37.4393C34.7957 37.2596 34.7968 37.0784 34.7936 36.899C34.7925 36.8419 34.7942 36.745 34.7949 36.6876C34.7953 36.6646 34.7949 36.642 34.7949 36.6193C34.796 36.4133 34.7983 36.2075 34.802 36.0009C34.8122 35.4367 34.8324 34.8766 34.8615 34.321L34.8605 34.3216C35.0649 30.3525 35.7379 26.6229 36.8087 23.4856C36.9078 23.1954 36.753 22.8802 36.4627 22.7812C36.1798 22.6845 35.897 22.592 35.6147 22.5036C35.329 22.414 35.0239 22.5681 34.9274 22.8515C33.7668 26.2586 33.0506 30.3008 32.8596 34.5781C32.8353 35.1207 32.54 35.6146 32.0727 35.8915C29.5393 37.3929 27.2127 38.9846 25.2027 40.5889C24.784 40.9232 24.1859 40.9105 23.7809 40.5593C21.7665 38.8127 20.0711 36.9157 18.7894 34.9474C16.2707 31.0799 15.6722 27.4365 17.1045 24.6901C17.1084 24.6836 17.1119 24.6769 17.1155 24.6707C17.2982 24.3675 17.488 24.0686 17.6857 23.7739C19.3316 21.5953 22.3948 20.3329 26.4575 20.1901C26.7145 20.1811 26.9733 20.1765 27.2345 20.1765C29.7264 20.1765 32.4007 20.5877 35.1205 21.3725C35.1801 21.3898 35.2404 21.4071 35.2999 21.4246C35.3459 21.4382 35.3919 21.4509 35.4379 21.4647C36.0664 21.6525 36.6966 21.8608 37.3277 22.0878C37.3425 22.0931 37.3574 22.0984 37.3721 22.1036C37.5366 22.163 37.7008 22.2238 37.865 22.2858C37.9164 22.3052 37.9679 22.3248 38.0194 22.3447C38.0687 22.3637 38.1182 22.3821 38.1679 22.4012L38.1672 22.4021C39.4955 22.9162 40.8227 23.5141 42.1333 24.1954C44.6701 25.5133 46.9922 27.0583 49.0129 28.7534C45.1564 29.6368 40.6738 31.3411 36.1668 33.639C35.9589 33.7451 35.822 33.954 35.8089 34.1872C35.7931 34.4665 35.7724 35.0281 35.7575 35.4745C35.7483 35.7547 36.0446 35.9403 36.2928 35.8099L36.2954 35.8083C40.7577 33.4652 45.2112 31.7138 49.0358 30.7883C49.7506 30.6154 50.2135 29.9288 50.1131 29.2003C50.0427 28.6913 49.9635 28.1904 49.8759 27.6983C49.7658 27.0801 49.4273 26.5273 48.9279 26.147C47.1366 24.7825 45.1625 23.5308 43.0492 22.4326C41.625 21.6926 40.18 21.0442 38.7319 20.4913C38.4221 20.373 38.2894 20.0069 38.4511 19.7175C39.943 17.0485 41.7174 15.5538 43.4461 15.5538C43.464 15.5538 43.4819 15.5538 43.4998 15.5542C45.5389 15.5907 47.5722 17.714 49.0779 21.3796C49.84 23.2353 50.4306 25.3751 50.8342 27.7006C50.8321 27.6987 50.8299 27.697 50.828 27.6951C51.0002 28.6874 51.139 29.7131 51.242 30.7655C51.2331 30.771 51.2236 30.776 51.2147 30.7816C51.2268 30.794 51.2396 30.8062 51.2518 30.8187C51.4226 32.5843 51.4947 34.4229 51.461 36.299C51.4399 37.4857 51.3766 38.656 51.2744 39.8011C48.5463 42.0057 45.1733 44.1997 41.4657 46.1646C40.2472 46.8104 39.0291 47.4116 37.8227 47.9649C37.804 47.9736 37.7854 47.982 37.7666 47.9906C37.6745 48.0327 37.582 48.0754 37.4899 48.1171L37.4877 48.1164C36.4881 48.5686 35.4981 48.9869 34.5244 49.369C34.4692 49.3906 34.4151 49.4121 34.3603 49.4335C34.2919 49.4603 34.2235 49.4866 34.1553 49.5129C33.9919 49.5756 33.8292 49.6373 33.6669 49.698C33.6222 49.7145 33.5773 49.732 33.5326 49.7485C33.3356 49.8216 33.1395 49.8927 32.9442 49.9625C32.9198 49.9712 32.8954 49.9805 32.8713 49.9892C30.7847 50.7323 28.7962 51.2933 26.9847 51.6419C22.6077 52.4845 20.5466 51.838 20.0772 50.9524ZM23.2209 18.0705C26.9256 15.4176 31.3526 13.9862 36 13.9862C37.2265 13.9862 38.4375 14.0866 39.6239 14.2823C39.9417 14.3348 40.0483 14.7403 39.7949 14.9391C38.645 15.8405 37.5769 17.1741 36.6315 18.9037C36.4007 19.3257 35.9114 19.532 35.4487 19.4017C32.3166 18.5199 29.2349 18.1051 26.3878 18.2051C25.3375 18.242 24.3429 18.3483 23.4085 18.5206C23.146 18.569 23.004 18.2257 23.2209 18.0705ZM53.4386 34.1142C53.4321 33.8619 53.7559 33.7542 53.9023 33.9597C54.082 34.212 54.2554 34.4656 54.4214 34.7205C54.6419 35.0594 54.8472 35.3963 55.038 35.7311C55.1569 35.9398 55.1284 36.2017 54.9665 36.3791C54.7095 36.6614 54.4306 36.9532 54.1278 37.2559C54.0172 37.3661 53.9046 37.4767 53.7897 37.5874C53.6473 37.7251 53.4083 37.6202 53.4162 37.4221C53.4301 37.0609 53.4405 36.6986 53.447 36.3344C53.4604 35.5884 53.4572 34.8479 53.4386 34.1142ZM51.1557 20.0339C51.294 20.1651 51.4308 20.2985 51.5662 20.4339C53.6875 22.5552 55.3214 25.0339 56.414 27.7334C56.5243 28.0056 56.2932 28.2905 56.0041 28.2386C55.3719 28.125 54.6605 28.0743 53.8728 28.0875C53.327 28.0965 52.8526 27.714 52.7567 27.1766C52.3287 24.7766 51.7099 22.5597 50.9152 20.6249C50.8698 20.5145 50.824 20.4056 50.7777 20.2976C50.6767 20.0622 50.9698 19.8574 51.1557 20.0339ZM59.4815 31.0082C58.5332 26.502 56.303 22.3617 52.9705 19.0292C48.4375 14.4961 42.4107 12 36 12C29.5894 12 23.5624 14.4961 19.0295 19.0292C17.9268 20.1317 16.9463 21.3229 16.0913 22.5861C15.8371 22.9245 15.6094 23.2819 15.4069 23.656C13.186 27.3463 12 31.5819 12 35.9999C12 42.4106 14.4964 48.4375 19.0295 52.9704C23.5624 57.5033 29.5894 59.9999 36 59.9999C42.4107 59.9999 48.4375 57.5033 52.9705 52.9704C55.1099 50.8311 56.795 48.3589 57.9787 45.6707C58.1233 45.3728 58.2495 45.0679 58.3581 44.7568C59.4356 42.0035 60 39.0452 60 35.9999C60 34.3236 59.8278 32.6744 59.4947 31.0704C59.4902 31.0497 59.4861 31.029 59.4815 31.0082Z" fill="white"/>
</g>
<defs>
<clipPath id="clip0_0_440">
<rect width="72" height="72" fill="white"/>
</clipPath>
</defs>
</svg>
