<svg width="72" height="72" viewBox="0 0 72 72" fill="none" xmlns="http://www.w3.org/2000/svg">
<g clip-path="url(#clip0_0_389)">
<path d="M72 36C72 16.1178 55.8823 0 36 0C16.1178 0 0 16.1178 0 36C0 55.8823 16.1178 72 36 72C55.8823 72 72 55.8823 72 36Z" fill="#231F1F"/>
<path d="M13.1742 42.2134C12.0334 41.0723 11.2684 39.7548 10.8789 38.2604C10.4987 36.757 10.4987 35.2537 10.8789 33.7506C11.2684 32.2382 12.0289 30.9159 13.1606 29.7839C14.3106 28.6338 15.637 27.8686 17.14 27.4882C18.643 27.1079 20.146 27.1079 21.649 27.4882C23.152 27.8686 24.4739 28.6293 25.6148 29.7703L28.4396 32.5958L32.6226 28.412L29.7978 25.5865C28.657 24.4454 27.8918 23.1277 27.5025 21.6335C27.1222 20.1302 27.1177 18.6314 27.4889 17.1372C27.8693 15.6338 28.6344 14.3072 29.7842 13.157C30.9251 12.016 32.2469 11.2553 33.75 10.8749C35.2529 10.4946 36.7515 10.4991 38.2453 10.8885C39.7484 11.2689 41.0703 12.0296 42.2113 13.1707C43.352 14.3117 44.1125 15.6338 44.4929 17.1372C44.8822 18.6314 44.8866 20.1302 44.5062 21.6335C44.1352 23.1459 43.3791 24.4725 42.2382 25.6136L39.4268 28.4256L43.5966 32.5958L46.4078 29.7839C47.5487 28.6429 48.8659 27.8776 50.36 27.4882C51.863 27.1079 53.3613 27.1124 54.8554 27.5018C56.3585 27.8822 57.6849 28.6474 58.8348 29.7976C59.9754 30.9386 60.7362 32.2607 61.1163 33.7642C61.5056 35.2583 61.5056 36.7525 61.1163 38.2468C60.7362 39.75 59.9754 41.0723 58.8348 42.2134C57.6849 43.3634 56.3585 44.1286 54.8554 44.509C53.3613 44.8804 51.863 44.8757 50.36 44.4953C48.8751 44.115 47.5622 43.3544 46.4213 42.2134L43.6099 39.4013L39.4268 43.5853L42.2382 46.3973C43.3791 47.5384 44.1352 48.8559 44.5062 50.3502C44.8866 51.8534 44.8866 53.3568 44.5062 54.86C44.1261 56.3633 43.3611 57.6902 42.2113 58.8402C41.0795 59.9722 39.7575 60.7329 38.2453 61.1222C36.7424 61.5026 35.2393 61.5026 33.7364 61.1222C32.2514 60.742 30.9386 59.9813 29.7978 58.8402C28.6478 57.6902 27.8784 56.3679 27.4889 54.8736C27.1087 53.3705 27.1087 51.867 27.4889 50.3638C27.8874 48.8606 28.6525 47.5428 29.7842 46.4108L32.6226 43.5717L28.4532 39.4013L25.6148 42.2405C24.4829 43.3725 23.1565 44.1286 21.6354 44.509C20.1324 44.8894 18.6294 44.8894 17.1264 44.509C15.6325 44.1197 14.3151 43.3544 13.1742 42.2134ZM16.5695 38.8174C17.0857 39.3336 17.6833 39.6776 18.3623 39.8497C19.0504 40.0307 19.734 40.0355 20.4131 39.8633C21.0921 39.6912 21.6897 39.3471 22.2058 38.831L25.0443 35.9917L22.2194 33.1663C21.7033 32.6502 21.1012 32.3106 20.4131 32.1476C19.734 31.9755 19.055 31.9755 18.3759 32.1476C17.6968 32.3195 17.0947 32.6682 16.5695 33.1936C16.0535 33.7097 15.7049 34.3028 15.5238 34.973C15.3518 35.6522 15.3518 36.3316 15.5238 37.0107C15.7049 37.6989 16.0535 38.3012 16.5695 38.8174ZM33.1932 22.1905L36.018 25.0159L38.8293 22.204C39.3546 21.6787 39.6987 21.081 39.8616 20.4109C40.0336 19.7318 40.0291 19.048 39.848 18.3597C39.676 17.6806 39.3319 17.0829 38.8158 16.5666C38.2997 16.0505 37.7022 15.7063 37.0231 15.5343C36.3439 15.3622 35.6649 15.3622 34.9859 15.5343C34.3158 15.6973 33.7183 16.0413 33.1932 16.5666C32.677 17.0829 32.3238 17.6806 32.1339 18.3597C31.9618 19.0389 31.9618 19.7182 32.1339 20.3973C32.3238 21.0765 32.677 21.6742 33.1932 22.1905ZM46.2099 36.0054L49.0213 38.8174C49.5374 39.3336 50.1305 39.6822 50.8005 39.8633C51.4794 40.0355 52.9495 40.0307 53.6196 39.8497C54.2985 39.6776 54.9007 39.329 55.4258 38.8037C55.9508 38.2784 56.2949 37.6807 56.4579 37.0107C56.6392 36.3405 56.6436 35.6658 56.4715 34.9866C56.2996 34.3074 55.9556 33.7097 55.4393 33.1936C54.9143 32.6682 54.312 32.3195 53.6332 32.1476C52.954 31.9755 51.4794 31.9755 50.8005 32.1476C50.1394 32.3195 49.5463 32.6682 49.0213 33.1936L46.2099 36.0054ZM33.1932 55.4442C33.7091 55.9604 34.3069 56.3045 34.9859 56.4766C35.6649 56.6486 36.3395 56.644 37.0095 56.463C37.6887 56.2908 38.2862 55.9468 38.8021 55.4306C39.3274 54.9053 39.676 54.3031 39.848 53.6239C40.0291 52.9537 40.0336 52.2791 39.8616 51.5999C39.6987 50.9116 39.3591 50.3093 38.8429 49.7932L36.0315 46.9814L33.1932 49.8205C32.677 50.3366 32.3286 50.9297 32.1472 51.5999C31.9754 52.2791 31.9754 52.9584 32.1472 53.6376C32.3194 54.3167 32.6681 54.9189 33.1932 55.4442ZM31.8485 36.0054L36.018 40.1756L40.2011 35.9917L36.0315 31.8215L31.8485 36.0054Z" fill="#F8D8CD"/>
</g>
<defs>
<clipPath id="clip0_0_389">
<rect width="72" height="72" fill="white"/>
</clipPath>
</defs>
</svg>
