<svg width="72" height="72" viewBox="0 0 72 72" fill="none" xmlns="http://www.w3.org/2000/svg">
<g clip-path="url(#clip0_0_3652)">
<path fill-rule="evenodd" clip-rule="evenodd" d="M35.8194 71.9091C46.3661 71.9091 55.854 67.3818 62.4395 60.1673L60.6873 58.2363C58.5186 55.8467 54.8218 55.6424 52.4011 57.7786L48.663 61.0773C43.5777 65.5651 35.8482 65.2821 31.1074 60.4346L28.7702 58.0447C26.5257 55.7496 22.8479 55.6699 20.5049 57.8651L13.6491 64.2883C19.7611 69.0631 27.4574 71.9091 35.8194 71.9091ZM65.7531 53.6783L66.604 54.6162C69.9188 49.176 71.8281 42.7881 71.8281 35.9546C71.8281 27.6686 69.021 20.0373 64.3044 13.9571C63.4277 14.1815 62.5897 14.6109 61.866 15.2496L58.1282 18.5483C53.0429 23.036 45.3135 22.7532 40.5726 17.9057L38.2354 15.5158C35.9907 13.2208 32.3131 13.1408 29.97 15.336L20.3525 24.3468L15.6737 19.3958L25.2912 10.3849C30.3472 5.64792 38.2835 5.82057 43.1268 10.7729L45.464 13.1629C47.6612 15.4092 51.2429 15.5403 53.5997 13.4606L57.3375 10.1619C57.965 9.60832 58.6319 9.12759 59.3283 8.71908C53.0199 3.28558 44.8039 0 35.8194 0C17.7552 0 2.79785 13.2816 0.207543 30.5984C5.1368 27.7652 11.5371 28.5059 15.6774 32.7393L18.3804 35.5031C20.4815 37.6517 23.8707 37.8782 26.2414 36.0287L34.2543 29.7782C39.0637 26.0264 45.8724 26.2079 50.4733 30.2104L61.384 39.7023L56.8921 44.8217L45.981 35.3301C43.8489 33.4751 40.6937 33.391 38.4651 35.1298L30.452 41.3805C25.3364 45.3711 18.0228 44.882 13.4889 40.2461L10.7859 37.4823C8.54137 35.1873 4.86363 35.1073 2.52062 37.3025L0 39.664C0.779527 47.2583 3.92624 54.1523 8.69124 59.5987L15.8261 52.9138C20.8821 48.177 28.8183 48.3494 33.6616 53.3019L35.9991 55.6918C38.196 57.9381 41.778 58.0694 44.1345 55.9897L47.8726 52.691C53.096 48.0812 61.0737 48.5218 65.7531 53.6783Z" fill="url(#paint0_linear_0_3652)"/>
</g>
<defs>
<linearGradient id="paint0_linear_0_3652" x1="35.914" y1="5.35549e-07" x2="50.0648" y2="71.9033" gradientUnits="userSpaceOnUse">
<stop stop-color="#780000"/>
<stop offset="1" stop-color="#C1121F"/>
</linearGradient>
<clipPath id="clip0_0_3652">
<rect width="72" height="72" fill="white"/>
</clipPath>
</defs>
</svg>
