<svg width="48" height="48" viewBox="0 0 48 48" fill="none" xmlns="http://www.w3.org/2000/svg">
<g clip-path="url(#clip0_0_784)">
<path d="M24 48C37.2547 48 48 37.2547 48 24C48 10.7452 37.2547 0 24 0C10.7452 0 0 10.7452 0 24C0 37.2547 10.7452 48 24 48Z" fill="black"/>
<path d="M34.9521 10.5571H39.4305L30.1082 20.2229C26.7328 23.7224 21.2608 23.7224 17.8927 20.2229L8.57034 10.5571H13.0489L20.1283 17.8996C22.269 20.1133 25.732 20.1133 27.8654 17.8996L34.9521 10.5571ZM12.9904 37.4431H8.5119L17.8927 27.7115C21.268 24.2119 26.7403 24.2119 30.1156 27.7115L39.4963 37.4431H35.0179L27.88 30.0347C25.7392 27.821 22.2763 27.821 20.143 30.0347L12.9904 37.4431Z" fill="white"/>
</g>
<defs>
<clipPath id="clip0_0_784">
<rect width="48" height="48" fill="white"/>
</clipPath>
</defs>
</svg>
