<svg width="72" height="72" viewBox="0 0 72 72" fill="none" xmlns="http://www.w3.org/2000/svg">
<g clip-path="url(#clip0_0_3074)">
<path d="M72 36C72 16.3901 55.8823 0.493164 36 0.493164C16.1177 0.493164 0 16.3901 0 36C0 55.6099 16.1177 71.5069 36 71.5069C55.8823 71.5069 72 55.6099 72 36Z" fill="url(#paint0_linear_0_3074)"/>
<path d="M24.4132 43.6836H54.8722C54.9052 43.6836 54.9246 43.6928 54.9366 43.7012C54.9506 43.711 54.9635 43.7264 54.9718 43.7461C54.9802 43.766 54.9811 43.7848 54.9786 43.7988C54.9767 43.81 54.9716 43.8266 54.9503 43.8477L48.9327 49.7822C48.7993 49.9138 48.6137 49.9931 48.4142 49.9932H17.9552C17.9222 49.9932 17.9028 49.9839 17.8907 49.9756C17.8767 49.9657 17.8639 49.9504 17.8556 49.9307C17.8472 49.9107 17.8453 49.8919 17.8478 49.8779C17.8497 49.8668 17.8556 49.8503 17.8771 49.8291L23.8937 43.8945C24.0271 43.7629 24.2136 43.6836 24.4132 43.6836Z" fill="white" stroke="white" stroke-width="1.03562"/>
<path d="M24.4132 21.5264H54.8722C54.9052 21.5264 54.9246 21.5356 54.9366 21.5439C54.9507 21.5538 54.9635 21.5692 54.9718 21.5889C54.9802 21.6088 54.9811 21.6276 54.9786 21.6416C54.9767 21.6528 54.9716 21.6693 54.9503 21.6904L48.9327 27.625C48.7994 27.7565 48.6138 27.8359 48.4142 27.8359H17.9552C17.9222 27.8359 17.9028 27.8267 17.8907 27.8184C17.8767 27.8085 17.8639 27.7931 17.8556 27.7734C17.8472 27.7535 17.8453 27.7347 17.8478 27.7207C17.8488 27.7151 17.8513 27.7084 17.8556 27.7002L17.8771 27.6719L23.8868 21.7441C24.036 21.603 24.227 21.5264 24.4132 21.5264Z" fill="white" stroke="white" stroke-width="1.03562"/>
<path d="M17.9552 32.5339H48.4142C48.6136 32.534 48.7993 32.6133 48.9327 32.7449L54.9503 38.6794C54.9716 38.7006 54.9767 38.7171 54.9786 38.7283C54.9811 38.7423 54.9802 38.761 54.9718 38.781C54.9635 38.8007 54.9507 38.8161 54.9366 38.8259C54.9246 38.8343 54.9052 38.8435 54.8722 38.8435H24.4132C24.2136 38.8435 24.0271 38.7642 23.8937 38.6326L17.8771 32.698C17.8557 32.6768 17.8497 32.6603 17.8478 32.6492C17.8453 32.6352 17.8472 32.6163 17.8556 32.5964C17.8639 32.5768 17.8767 32.5613 17.8907 32.5515C17.9028 32.5432 17.9222 32.5339 17.9552 32.5339Z" fill="white" stroke="white" stroke-width="1.03562"/>
</g>
<defs>
<linearGradient id="paint0_linear_0_3074" x1="36" y1="0.493164" x2="36" y2="71.5069" gradientUnits="userSpaceOnUse">
<stop stop-color="#1CE3AF"/>
<stop offset="1" stop-color="#CD2FF9"/>
</linearGradient>
<clipPath id="clip0_0_3074">
<rect width="72" height="72" fill="white"/>
</clipPath>
</defs>
</svg>
