<svg width="48" height="48" viewBox="0 0 48 48" fill="none" xmlns="http://www.w3.org/2000/svg">
<path d="M14.404 8.90538C15.2263 7.96911 15.9825 7.1769 16.7027 6.5047C4.54331 6.11461 8.08429 14.9071 4.09919 23.8315C-0.462079 34.1184 4.63933 38.0374 12.2374 39.2618C11.1764 37.9975 10.3106 36.5813 9.66873 35.0606C4.76538 28.861 6.75193 17.5598 14.404 8.90538Z" fill="#EFE812"/>
<path d="M43.6625 19.8647C42.2266 23.6213 40.1491 27.0999 37.5228 30.1455C35.4173 32.7044 32.8951 34.8896 30.0627 36.6094C26.773 38.6938 22.9498 39.7801 19.0556 39.7364C16.782 39.7568 14.5104 39.5981 12.2617 39.2621C13.5102 40.7535 15.0581 41.966 16.805 42.8211C27.7999 48.1385 28.4902 38.2659 40.1215 33.2545C46.6512 30.4397 46.6752 24.9421 43.6565 19.8647" fill="#CCA727"/>
<path d="M30.0607 9.60134C31.6524 9.87996 33.1862 10.4237 34.5979 11.2098C38.2965 13.2893 41.4129 16.2653 43.6605 19.8642C45.641 14.2827 44.7168 9.90144 40.3896 9.10922C35.6244 8.23898 31.9032 7.95688 28.3262 5.46019C23.921 2.39935 20.056 3.39564 16.707 6.5105L17.4332 6.5405C22.0785 6.81657 26.5197 7.74084 30.0367 9.58934" fill="#CCA727"/>
<path d="M14.4044 8.90576C6.75229 17.5602 4.76573 28.8613 9.6931 35.0609C8.55325 32.3698 8.0558 29.4502 8.24019 26.5333C8.42458 23.6164 9.28573 20.7826 10.7554 18.2564C14.9025 11.3424 23.2268 8.34159 30.0628 9.60195C26.5218 7.72943 22.0805 6.82919 17.4593 6.55309L16.733 6.51709C15.9889 7.20128 15.2326 7.9695 14.4044 8.90576Z" fill="#DEC21C"/>
<path d="M34.5997 11.1985C33.1871 10.4165 31.6535 9.8769 30.0625 9.60205C34.7197 12.0507 37.8107 16.2039 37.8107 22.7697C37.7835 25.5412 37.0599 28.2616 35.7059 30.6801C34.3518 33.0986 32.4111 35.1376 30.0625 36.6095C32.8964 34.8916 35.4186 32.7062 37.5224 30.1459C40.149 27.1 42.2264 23.6215 43.6623 19.8649C41.4162 16.2616 38.2998 13.2814 34.5997 11.1985Z" fill="#E5CB22"/>
<path d="M30.061 9.60162C23.225 8.34128 14.9007 11.3421 10.7536 18.226C9.27774 20.7555 8.41317 23.5948 8.22873 26.5175C8.04431 29.4403 8.54512 32.3656 9.69126 35.0606C10.3308 36.5827 11.1968 37.9989 12.26 39.2618C14.5087 39.5978 16.7803 39.7564 19.0539 39.736C22.948 39.7797 26.7713 38.6937 30.061 36.6091C32.4101 35.1376 34.351 33.0988 35.7051 30.6801C37.0591 28.2616 37.7827 25.541 37.8091 22.7693C37.8091 16.2035 34.7182 12.0503 30.061 9.60162ZM29.2927 33.4883C26.7646 35.1122 23.6961 35.669 20.7585 35.0368C17.8208 34.4049 15.253 32.6354 13.6163 30.1154C10.2194 24.8759 11.8999 18.112 16.9953 14.511C22.6969 10.4599 30.007 12.0563 32.6717 17.8839C35.2704 23.5615 34.5562 30.1214 29.2927 33.4883Z" fill="#CCA727"/>
</svg>
