<svg width="72" height="72" viewBox="0 0 72 72" fill="none" xmlns="http://www.w3.org/2000/svg">
<g clip-path="url(#clip0_0_596)">
<path d="M72 36C72 16.3901 55.8823 0.493164 36 0.493164C16.1177 0.493164 0 16.3901 0 36C0 55.6099 16.1177 71.5069 36 71.5069C55.8823 71.5069 72 55.6099 72 36Z" fill="url(#paint0_linear_0_596)"/>
<path d="M23.471 18.7419C26.3752 17.756 29.6142 18.3575 32.1712 20.6921L32.1722 20.6931C35.6828 23.8753 35.4123 29.0451 32.5423 32.5349L32.5296 32.5515L32.5179 32.5681C30.6541 35.2414 27.998 38.5961 26.9915 42.1326C26.482 43.9228 26.3829 45.7908 27.0237 47.6667C27.6641 49.5413 29.0257 51.3712 31.3441 53.1179C32.1504 53.7254 32.8919 54.3115 34.0814 54.9187C34.8573 55.3148 35.8186 55.7154 37.1116 56.1482C34.7385 56.3052 32.4139 56.0529 29.888 55.4343C27.5538 54.1482 24.0633 51.5231 22.7269 48.0574L22.6038 47.7156C21.6821 44.9852 22.4814 41.495 23.9153 38.1843C25.3385 34.8986 27.3331 31.911 28.6292 30.2546L28.6312 30.2527C30.5957 27.7223 30.0403 24.9576 28.2288 23.6257C27.3333 22.9673 26.1579 22.6878 24.9144 22.9666C23.6731 23.2449 22.402 24.069 21.2689 25.5496C20.1027 27.0689 18.5309 29.9301 17.4212 33.1843C16.3137 36.4323 15.6383 40.1541 16.3528 43.3679L16.3538 43.3708C16.6156 44.5127 16.9094 45.5711 17.3362 46.6023C11.8996 38.2814 13.5683 27.7871 19.2298 21.739L19.2415 21.7263L19.2523 21.7136C19.5028 21.409 19.7684 21.1137 20.0433 20.8103C20.054 20.8031 20.0665 20.7963 20.0784 20.7869C20.1043 20.7664 20.1325 20.738 20.1614 20.7029L20.1624 20.7039C20.1419 20.7288 20.1234 20.745 20.1165 20.7507C20.111 20.7553 20.1079 20.7576 20.1185 20.7498C20.1253 20.7447 20.1459 20.7295 20.1673 20.7117L20.2591 20.6199L20.2581 20.6189C20.4562 20.4416 20.6391 20.2787 20.845 20.1365L20.8509 20.1326L20.8568 20.1277C21.6986 19.5097 22.5641 19.0467 23.4691 18.7429L23.471 18.7419Z" fill="white" stroke="white" stroke-width="1.03562"/>
<path d="M33.9529 14.3748C36.2728 14.2098 38.544 14.4649 41.0135 15.0955C43.2836 16.4009 46.6877 19.0698 47.992 22.6003L48.1121 22.948C49.0138 25.7354 48.2311 29.2938 46.8338 32.6609C45.4462 36.0046 43.5012 39.0438 42.2381 40.7283L42.2371 40.7302C40.3304 43.2938 40.866 46.0886 42.6297 47.4421C43.5057 48.1144 44.6602 48.4028 45.8826 48.1169C47.025 47.8497 48.1867 47.0916 49.2361 45.7585L49.4442 45.4851C50.5797 43.9409 52.1098 41.0333 53.1902 37.7263C54.2689 34.4247 54.9258 30.6461 54.2313 27.3855L54.2303 27.3826L54.0779 26.7175C53.8659 25.8322 53.6227 24.9926 53.3016 24.1707C58.5324 32.6245 56.8978 43.2551 51.3973 49.3884L51.3856 49.4011L51.3758 49.4138C51.1316 49.7239 50.8715 50.024 50.6033 50.3328C50.594 50.3394 50.5833 50.3459 50.5731 50.3542L50.4881 50.4412C50.5076 50.4165 50.5249 50.4006 50.532 50.3943C50.5261 50.3989 50.5046 50.4148 50.4832 50.4333C50.4606 50.4531 50.4286 50.4833 50.3963 50.5242L50.3943 50.5251C50.2013 50.7055 50.0245 50.8726 49.824 51.0173L49.8182 51.0212L49.8123 51.0261C48.9925 51.6541 48.1516 52.1239 47.2733 52.4314L47.2713 52.4324C44.4549 53.4305 41.3114 52.8246 38.8221 50.4529L38.8201 50.4519L38.5096 50.1423C35.4133 46.8827 35.7472 41.8245 38.4608 38.3806L38.4725 38.365L38.4842 38.3484C40.3012 35.6281 42.8856 32.2194 43.8651 28.6277C44.3604 26.8112 44.457 24.9177 43.8348 23.0164C43.2125 21.1153 41.8876 19.2551 39.6268 17.4773C38.8415 16.8598 38.1176 16.2628 36.9568 15.6443C36.1899 15.2356 35.2383 14.8216 33.9529 14.3748Z" fill="white" stroke="white" stroke-width="1.03562"/>
</g>
<defs>
<linearGradient id="paint0_linear_0_596" x1="36" y1="0.493164" x2="36" y2="71.5069" gradientUnits="userSpaceOnUse">
<stop stop-color="#5176DC"/>
<stop offset="1" stop-color="#3F3EE5"/>
</linearGradient>
<clipPath id="clip0_0_596">
<rect width="72" height="72" fill="white"/>
</clipPath>
</defs>
</svg>
