<svg width="72" height="72" viewBox="0 0 72 72" fill="none" xmlns="http://www.w3.org/2000/svg">
<g clip-path="url(#clip0_0_330)">
<path fill-rule="evenodd" clip-rule="evenodd" d="M36 0C55.8837 0 72 16.1163 72 36C72 55.8837 55.8837 72 36 72C16.1163 72 0 55.8837 0 36C0 16.1163 16.1163 0 36 0Z" fill="#DEC21C"/>
<path d="M19.7715 36.0083L19.7979 45.519V45.5278L19.8047 45.5327L27.8857 50.2866V55.8247L15.0938 48.3228V33.2417L19.7715 36.0083ZM24.4902 23.6938L19.7793 26.4673L19.7715 26.4722V32.0005L15.0918 29.2319V23.7026L19.7871 20.9243L24.4902 23.6938ZM40.6934 23.6938L35.9893 26.4624L31.3086 23.6938L35.9893 20.9243L40.6934 23.6938Z" fill="white" stroke="white" stroke-width="0.0302885"/>
<path d="M40.7031 57.813L35.9844 60.5903L31.2891 57.813V52.3003L35.9766 55.0747L35.9844 55.0796L35.9922 55.0747L40.7031 52.3003V57.813ZM56.9062 48.3198L44.1143 55.8228V50.2837L52.1924 45.5327L52.1992 45.5278L52.2002 45.519L52.2246 36.0083L56.9062 33.2388V48.3198ZM27.8809 40.7681V46.2798L23.2012 43.5366V37.9995L27.8809 40.7681ZM52.2002 26.4722L52.1924 26.4673L47.5029 23.6938L52.1846 20.9243L56.9033 23.7026V29.2319L52.2002 32.0005V26.4722Z" fill="white" stroke="white" stroke-width="0.0302885"/>
<path d="M48.793 43.5366L44.1133 46.2788V40.7681L48.793 37.9995V43.5366Z" fill="white" stroke="white" stroke-width="0.0302885"/>
<path d="M48.7764 18.9373L44.0957 21.7058L35.9922 16.9285L35.9844 16.9236L35.9766 16.9285L27.8965 21.7058L23.2148 18.9373L35.9844 11.408L48.7764 18.9373ZM31.3154 38.7781L31.3076 38.7732L23.2031 34.0173V28.4617L27.918 25.6843L35.9736 30.4626L35.9814 30.4675L35.9893 30.4626L44.0928 25.6843L48.791 28.45L48.792 28.4539L48.8164 34.0173L40.7139 38.7732L40.7061 38.7781V48.3201L36.0107 51.071L31.3154 48.3201V38.7781Z" fill="white" stroke="white" stroke-width="0.0302885"/>
</g>
<defs>
<clipPath id="clip0_0_330">
<rect width="72" height="72" fill="white"/>
</clipPath>
</defs>
</svg>
