<svg width="72" height="72" viewBox="0 0 72 72" fill="none" xmlns="http://www.w3.org/2000/svg">
<g clip-path="url(#clip0_0_3675)">
<path d="M71.9964 36.0958C71.9964 40.8148 71.0674 45.4875 69.2623 49.8472C67.4571 54.2069 64.8114 58.1682 61.476 61.505C58.1406 64.8418 54.1809 67.4886 49.823 69.2945C45.4651 71.1003 40.7943 72.0298 36.0773 72.0298C31.3604 72.0298 26.6896 71.1003 22.3317 69.2945C17.9738 67.4886 14.0141 64.8418 10.6787 61.505C7.34327 58.1682 4.69748 54.2069 2.89238 49.8472C1.08728 45.4875 0.158202 40.8148 0.158203 36.0958C0.158205 26.5656 3.94253 17.4256 10.6787 10.6867C17.4148 3.94777 26.551 0.161866 36.0773 0.161865C45.6037 0.161865 54.7398 3.94777 61.476 10.6867C68.2121 17.4256 71.9964 26.5656 71.9964 36.0958Z" fill="#1E1E1E"/>
<path fill-rule="evenodd" clip-rule="evenodd" d="M36.1058 6.55726C19.8159 6.55726 6.60647 19.793 6.60647 36.1279C6.60647 52.4628 19.8159 65.6983 36.1058 65.6983C52.3957 65.6983 65.6049 52.4628 65.6049 36.1279C65.6049 19.7988 52.3955 6.55726 36.1058 6.55726ZM3.61523 36.1279C3.61523 18.1366 18.1643 3.55884 36.1058 3.55884C54.0475 3.55884 68.5966 18.1428 68.5966 36.1279C68.5966 54.1192 54.0474 68.6972 36.1058 68.6972C18.1643 68.6972 3.61523 54.1192 3.61523 36.1279Z" fill="#ECA48D"/>
<path fill-rule="evenodd" clip-rule="evenodd" d="M48.9319 28.3676L40.736 28.0258L46.3056 21.9809L44.0622 19.738L38.026 25.3032L37.6969 17.0874H34.5322L34.1912 25.3032L28.1609 19.7201L25.9235 21.9689L31.4812 28.0197L23.2793 28.3436V31.522L31.4752 31.8637L25.9055 37.9086L28.149 40.1515L34.0895 34.6703L34.3528 47.9833L29.6087 48.3312V51.2876L34.4246 51.6535L34.5143 56.2771H37.679L37.7747 51.6595L42.6384 51.2876V48.3312L37.8465 47.9833L38.1157 34.6763L44.0503 40.1635L46.2877 37.9206L40.7361 31.8697L48.9319 31.54L48.9319 28.3676Z" fill="#ECA48D"/>
</g>
<defs>
<clipPath id="clip0_0_3675">
<rect width="72" height="72" fill="white"/>
</clipPath>
</defs>
</svg>
