<svg width="72" height="72" viewBox="0 0 72 72" fill="none" xmlns="http://www.w3.org/2000/svg">
<g clip-path="url(#clip0_0_693)">
<path d="M72 36C72 16.3901 55.8823 0.493164 36 0.493164C16.1177 0.493164 0 16.3901 0 36C0 55.6099 16.1177 71.5069 36 71.5069C55.8823 71.5069 72 55.6099 72 36Z" fill="#2D374B"/>
<path d="M40.394 39.5976L38.0141 45.8822C37.9439 46.0565 37.9439 46.2501 38.0141 46.4244L42.101 57.241L46.8306 54.6069L41.1572 39.5976C41.0265 39.249 40.5245 39.249 40.394 39.5976Z" fill="#579DC4"/>
<path d="M45.1553 29.0229C45.0248 28.6743 44.5228 28.6743 44.3923 29.0229L42.0124 35.3074C41.942 35.4819 41.942 35.6755 42.0124 35.8498L48.71 53.5609L53.4397 50.9269L45.1553 29.0229Z" fill="#579DC4"/>
<path d="M36.7504 15.2629C36.8709 15.2629 36.9814 15.292 37.0918 15.3501L55.1265 25.3918C55.3374 25.508 55.4679 25.7211 55.4679 25.9535V46.037C55.4679 46.2694 55.3374 46.4824 55.1265 46.5986L37.0918 56.6501C36.9915 56.7081 36.8709 56.7373 36.7504 56.7373C36.63 56.7373 36.5194 56.7081 36.409 56.6501L18.3844 46.6084C18.1736 46.4921 18.043 46.279 18.043 46.0468V25.9535C18.043 25.7211 18.1736 25.508 18.3844 25.3918L36.4191 15.3501C36.5194 15.292 36.64 15.2629 36.7504 15.2629ZM36.7504 12.3289C36.1078 12.3289 35.4651 12.4935 34.8927 12.813L16.8581 22.8548C15.7134 23.4939 15.0004 24.6753 15.0004 25.9535V46.037C15.0004 47.3152 15.7134 48.5064 16.8581 49.1454L34.8927 59.1872C35.4651 59.5066 36.1078 59.6713 36.7504 59.6713C37.393 59.6713 38.0358 59.5066 38.6082 59.1872L56.6427 49.1454C57.7975 48.5064 58.5004 47.3249 58.5004 46.037V25.9535C58.5004 24.6753 57.7875 23.4842 56.6427 22.8451L38.6182 12.813C38.0358 12.4935 37.393 12.3289 36.7504 12.3289Z" fill="#7EA4F8"/>
<path d="M30.661 25.0376H35.0702L24.5546 52.8354L20.7391 50.7104L30.3827 25.2163L30.3856 25.2075C30.4152 25.1244 30.5163 25.0377 30.661 25.0376Z" fill="white" stroke="white" stroke-width="1.03562"/>
<path d="M38.6637 25.0376H43.066L31.1608 56.5151L27.3463 54.3901L38.3844 25.2163L38.3873 25.2075C38.417 25.1243 38.5188 25.0376 38.6637 25.0376Z" fill="white" stroke="white" stroke-width="1.03562"/>
</g>
<defs>
<clipPath id="clip0_0_693">
<rect width="72" height="72" fill="white"/>
</clipPath>
</defs>
</svg>
