<svg width="72" height="72" viewBox="0 0 72 72" fill="none" xmlns="http://www.w3.org/2000/svg">
<g clip-path="url(#clip0_0_411)">
<mask id="mask0_0_411" style="mask-type:luminance" maskUnits="userSpaceOnUse" x="0" y="0" width="72" height="72">
<path d="M72 0H0V72H72V0Z" fill="white"/>
</mask>
<g mask="url(#mask0_0_411)">
<path fill-rule="evenodd" clip-rule="evenodd" d="M35.9996 -0.0168457C55.8937 -0.0168457 72.0169 16.1063 72.0169 36.0003C72.0169 55.8944 55.8937 72.0176 35.9996 72.0176C16.1055 72.0176 -0.0175781 55.8944 -0.0175781 36.0003C-0.0175781 16.1063 16.1055 -0.0168457 35.9996 -0.0168457Z" fill="#579DC4"/>
<path d="M35.9736 10.8274C36.6382 10.8274 37.299 10.9484 37.8506 11.1868L38.0801 11.2961L50.6299 17.8928C51.3396 18.2642 51.7201 18.8162 51.7832 19.3674L51.791 19.4358V52.5022C51.7748 53.0619 51.4413 53.6363 50.7695 54.0383L50.6299 54.1165L38.0801 60.7141C37.4878 61.0247 36.7331 61.1829 35.9736 61.1829C35.2144 61.1828 34.4604 61.0246 33.8682 60.7141L21.3184 54.1165C20.5558 53.7145 20.2007 53.102 20.1836 52.5022V19.4485L20.1914 19.3557C20.2384 18.8078 20.5982 18.2732 21.3262 17.884L21.3271 17.885L33.8652 11.2922L33.8682 11.2961C34.4604 10.9856 35.2143 10.8275 35.9736 10.8274ZM49.8916 37.7268L38.0801 43.929C37.4877 44.2397 36.7332 44.3977 35.9736 44.3977C35.2143 44.3976 34.4604 44.2396 33.8682 43.929L22.083 37.7356L21.8984 37.6389V52.5002L21.9658 52.5364L33.751 58.6946C34.409 59.0448 35.128 59.4026 35.8291 59.4475L35.9668 59.4563H35.9746C36.7141 59.4562 37.4221 59.0871 38.1074 58.7571L38.1113 58.7551L50.0088 52.4846L50.0762 52.4485V37.6301L49.8916 37.7268ZM17.8887 51.8977C17.8981 53.1057 18.0431 53.9268 18.3467 54.5256V54.5247C18.6003 55.0407 18.9888 55.4236 19.6641 55.8831V55.884L19.6982 55.9094L19.7734 55.8088L19.6982 55.9104L19.7051 55.9143C19.8536 56.0105 20.0136 56.1111 20.2119 56.2405L20.2158 56.2434L20.4473 56.3811L21.0518 56.7444L20.1602 58.2122L19.4697 57.7971H19.4688L19.334 57.7122C19.1022 57.5663 18.9143 57.4467 18.7354 57.3274C17.7943 56.6957 17.1579 56.0437 16.7529 55.1995C16.3506 54.3606 16.1716 53.3198 16.1641 51.8977H17.8887ZM34.9434 28.8303C34.8474 28.8652 34.7533 28.9015 34.667 28.9495L22.1221 35.5442C22.1196 35.5454 22.1174 35.5469 22.1152 35.5481H22.0918L22.0547 35.5852L22.0469 35.594L21.9238 35.717L22.0791 35.7952L22.0908 35.801L22.1094 35.8137L22.1201 35.8196L34.667 42.4153V42.4163C34.7533 42.4642 34.8474 42.5006 34.9434 42.5354L35.1123 42.5969V28.7688L34.9434 28.8303ZM36.8359 42.5881L37.0049 42.5266C37.1005 42.4918 37.194 42.4545 37.2803 42.4065L49.8271 35.8108C49.8288 35.81 49.8305 35.8096 49.832 35.8088H49.8555L49.9014 35.7629L50.0254 35.6399L49.8574 35.5559L49.8389 35.5432H49.8398L49.8281 35.5374L37.2783 28.9397H37.2773C37.1919 28.8926 37.0994 28.8559 37.0049 28.8215L36.8359 28.76V42.5881ZM49.8916 21.5784L38.6299 27.4963L38.418 27.6086L38.6299 27.72L49.8916 33.6379L50.0762 33.7356V21.4817L49.8916 21.5784ZM21.9072 33.718L22.0918 33.6213L33.3271 27.72L33.5391 27.6086L33.3271 27.4963L22.0918 21.5959L21.9072 21.4983V33.718ZM35.9785 12.5364C35.5088 12.5364 35.0291 12.6235 34.6787 12.8079L22.1309 19.4036C22.1284 19.4048 22.1262 19.4063 22.124 19.4075H22.1006L22.0645 19.4446L21.9316 19.5774L22.0879 19.6555L22.0986 19.6594L22.1172 19.6731L22.1533 19.6194L22.1172 19.6741L22.1289 19.6799L34.6787 26.2766C35.0292 26.4611 35.5087 26.5491 35.9785 26.5491C36.4483 26.5491 36.9279 26.4611 37.2783 26.2766L49.8271 19.679C49.829 19.678 49.8313 19.6779 49.833 19.677H49.8555L49.8926 19.6409L50.0254 19.5081L49.8682 19.4299L49.8604 19.425L49.8398 19.4124V19.4114L49.8281 19.4055L37.2783 12.8079C36.9279 12.6235 36.4482 12.5364 35.9785 12.5364ZM52.5391 14.2307V14.2297L52.6748 14.3147L52.6777 14.3167C52.7917 14.3842 52.8947 14.4503 52.9922 14.5139L53.2725 14.6995C54.2136 15.3311 54.8499 15.9832 55.2549 16.8274C55.6572 17.6662 55.8372 18.7072 55.8447 20.1292H54.1191C54.1097 18.921 53.9649 18.1 53.6611 17.5012C53.4075 16.9855 53.0191 16.6022 52.3438 16.1428H52.3447L52.3105 16.1174L52.3027 16.1125L51.7969 15.7864L51.792 15.7834L51.5605 15.6458H51.5596L50.9551 15.2815L51.8477 13.8137L52.5391 14.2307ZM22.1055 19.4192C22.1041 19.42 22.103 19.4199 22.1025 19.4202L22.1035 19.4192C22.1043 19.4188 22.1057 19.418 22.1074 19.4172C22.1066 19.4178 22.1061 19.4188 22.1055 19.4192Z" fill="white" stroke="white" stroke-width="0.252"/>
</g>
</g>
<defs>
<clipPath id="clip0_0_411">
<rect width="72" height="72" fill="white"/>
</clipPath>
</defs>
</svg>
