<svg width="72" height="72" viewBox="0 0 72 72" fill="none" xmlns="http://www.w3.org/2000/svg">
<g clip-path="url(#clip0_0_3084)">
<mask id="mask0_0_3084" style="mask-type:alpha" maskUnits="userSpaceOnUse" x="0" y="0" width="72" height="72">
<path d="M36 72C55.8823 72 72 55.8823 72 36C72 16.1178 55.8823 0 36 0C16.1178 0 0 16.1178 0 36C0 55.8823 16.1178 72 36 72Z" fill="black"/>
</mask>
<g mask="url(#mask0_0_3084)">
<path d="M57.2818 0H14.7182C6.58958 0 0 6.58958 0 14.7182V57.2818C0 65.4106 6.58958 72 14.7182 72H57.2818C65.4106 72 72 65.4106 72 57.2818V14.7182C72 6.58958 65.4106 0 57.2818 0Z" fill="url(#paint0_linear_0_3084)"/>
<path d="M53.8389 16.896L25.9922 55.896H17.8682L45.5703 16.896H53.8389Z" fill="white" stroke="white" stroke-width="0.378"/>
<path d="M26.9834 16.7065L35.2133 28.3099L30.9194 34.6391L18.2168 16.7065H26.9834Z" fill="url(#paint1_linear_0_3084)"/>
<path d="M46.308 56.0884L37.1838 43.2548L41.4779 37.1013L54.8958 56.0884H46.308Z" fill="url(#paint2_linear_0_3084)"/>
<path d="M57.2818 0H14.7182C6.58958 0 0 6.58958 0 14.7182V57.2818C0 65.4106 6.58958 72 14.7182 72H57.2818C65.4106 72 72 65.4106 72 57.2818V14.7182C72 6.58958 65.4106 0 57.2818 0Z" stroke="#2D2D3D" stroke-width="0.756"/>
</g>
</g>
<defs>
<linearGradient id="paint0_linear_0_3084" x1="58.2761" y1="-10.1436" x2="40.5745" y2="63.4475" gradientUnits="userSpaceOnUse">
<stop stop-color="#2D2D3D"/>
<stop offset="1" stop-color="#140F34"/>
</linearGradient>
<linearGradient id="paint1_linear_0_3084" x1="25.0154" y1="19.1679" x2="36.5532" y2="33.3423" gradientUnits="userSpaceOnUse">
<stop stop-color="white"/>
<stop offset="1" stop-color="white" stop-opacity="0.55"/>
</linearGradient>
<linearGradient id="paint2_linear_0_3084" x1="48.2765" y1="53.1001" x2="34.1263" y2="33.6875" gradientUnits="userSpaceOnUse">
<stop stop-color="#8176ED"/>
<stop offset="1" stop-color="#6966FF" stop-opacity="0.36"/>
</linearGradient>
<clipPath id="clip0_0_3084">
<rect width="72" height="72" fill="white"/>
</clipPath>
</defs>
</svg>
