<svg width="48" height="48" viewBox="0 0 48 48" fill="none" xmlns="http://www.w3.org/2000/svg">
<g clip-path="url(#clip0_47_23362)">
<path d="M48 24C48 10.7452 37.2548 0 24 0C10.7452 0 0 10.7452 0 24C0 37.2548 10.7452 48 24 48C37.2548 48 48 37.2548 48 24Z" fill="#A835F8"/>
<path fill-rule="evenodd" clip-rule="evenodd" d="M38.669 24.4362C38.666 24.5353 38.531 24.5615 38.492 24.4702C38.4753 24.4307 38.4582 24.3912 38.4408 24.3516C38.409 24.2792 38.4179 24.195 38.4654 24.1317C38.4751 24.1187 38.4952 24.0925 38.519 24.0613C38.5832 23.9774 38.6758 23.99 38.6758 24.0831C38.6758 24.2052 38.6729 24.311 38.669 24.4362ZM37.9587 22.4965C37.8494 22.6935 37.5689 22.7025 37.4475 22.5126C37.4286 22.4832 37.4096 22.4539 37.3905 22.4244C36.9527 21.7523 36.449 21.0925 35.8863 20.4513C35.7482 20.2938 35.8611 20.0468 36.0707 20.0466H36.0757C37.3905 20.0466 38.0798 20.3715 38.2901 20.768C38.4657 21.0997 38.4118 21.6797 37.9587 22.4965ZM37.6649 29.3721C37.5943 29.5515 37.5206 29.7298 37.443 29.9064C37.4309 29.9307 37.4195 29.9553 37.407 29.9795C36.9231 30.9109 36.1111 31.6444 35.026 32.1548C34.7825 32.2691 34.5162 32.0464 34.5886 31.7874C34.949 30.4978 35.2217 29.0993 35.3984 27.6331C35.4313 27.3597 35.5661 27.1088 35.7745 26.9286C36.2207 26.5425 36.6375 26.157 37.0208 25.7743L37.025 25.7699C37.2136 25.5817 37.5354 25.6628 37.6122 25.9181C37.991 27.177 38.0119 28.3496 37.6649 29.3721ZM34.7153 34.028C34.605 34.146 34.4922 34.2626 34.3774 34.3774C34.1774 34.5771 33.9727 34.7704 33.7635 34.957C33.6315 35.0745 33.4319 34.9275 33.5066 34.7672C33.5278 34.7215 33.549 34.6754 33.57 34.6289C33.6579 34.4351 33.7429 34.2363 33.8254 34.0336C33.845 33.9858 33.8862 33.9502 33.9363 33.9374C34.1443 33.8846 34.3472 33.8263 34.5448 33.7625C34.7049 33.711 34.8304 33.9051 34.7153 34.028ZM32.5493 32.8639C32.1112 32.9274 31.6506 32.9684 31.1687 32.9853C29.9929 33.0265 28.7496 32.925 27.4726 32.6899C27.3169 32.6613 27.2869 32.4508 27.4281 32.3794C27.7067 32.2384 27.9854 32.0942 28.264 31.9465C30.2181 30.9108 32.0414 29.7786 33.6375 28.6178C33.7572 28.5308 33.9221 28.6335 33.8979 28.7795C33.6765 30.1098 33.37 31.3622 32.9851 32.499C32.9195 32.6926 32.7517 32.8345 32.5493 32.8639ZM32.0975 34.6362C31.0498 36.6969 29.7595 37.8537 28.5088 37.8304C27.1494 37.8063 25.7939 36.3906 24.7901 33.9468L24.7889 33.9441C24.7252 33.789 24.7984 33.6114 24.9521 33.5446C24.9627 33.5399 24.9734 33.5353 24.984 33.5306C25.0499 33.5019 25.1239 33.4967 25.1933 33.5163C27.071 34.0432 28.9211 34.3183 30.6544 34.3183C30.8428 34.3183 31.0299 34.315 31.2153 34.3086C31.4324 34.3008 31.6462 34.2886 31.8561 34.2719C32.0507 34.2565 32.1862 34.4621 32.0975 34.6362ZM25.8933 38.5548C25.2704 38.6348 24.6382 38.6758 24 38.6758C21.1473 38.6758 18.4189 37.8674 16.0765 36.3589C15.9153 36.2551 15.9838 36.005 16.1753 35.9962C16.2151 35.9944 16.2522 35.9923 16.2848 35.9903C16.8801 35.9516 17.5328 35.8644 18.2401 35.7282C19.7445 35.4388 21.4169 34.9423 23.1679 34.2738C23.325 34.2139 23.5002 34.2918 23.5641 34.4472L23.5652 34.4499C24.2438 36.1021 25.079 37.3506 26.0168 38.1447C26.1718 38.2761 26.0948 38.5289 25.8933 38.5548ZM17.4065 28.272C18.6997 27.219 20.2149 26.1683 21.8771 25.1735C21.9127 27.2994 22.1459 29.3405 22.5584 31.1841C21.9419 30.9212 21.3273 30.6317 20.7181 30.3152C19.538 29.7019 18.4277 29.0149 17.4065 28.272ZM13.3848 33.9683C13.0762 33.3862 13.4749 32.0379 15.5006 29.9887L15.5016 29.9877C15.7131 29.774 15.6928 29.4234 15.4567 29.2373C15.3755 29.1736 15.295 29.1091 15.2149 29.0446C15.0132 28.8816 14.7212 28.8965 14.5381 29.08C14.4979 29.1201 14.468 29.1504 14.4592 29.1594C13.4466 30.1988 12.7379 31.1609 12.3409 32.0263C12.2284 32.2715 11.8885 32.2979 11.7397 32.0729C10.1682 29.6973 9.32411 26.9136 9.32411 23.9999C9.32411 22.9582 9.43239 21.9331 9.6429 20.9374C9.67465 20.7867 9.88722 20.7771 9.93179 20.9244C10.2363 21.9297 10.7319 22.9695 11.4167 24.0209C12.3384 25.4365 13.5541 26.7973 14.9946 28.0457C15.4864 28.4717 16.0056 28.8838 16.5473 29.2814C17.6452 30.0871 18.8383 30.8307 20.1076 31.4901C20.6702 31.7825 21.2182 32.0615 21.7794 32.3142C22.0918 32.4548 22.4473 32.4657 22.7662 32.3405C23.0308 32.2369 23.2973 32.1291 23.5654 32.0171C23.8569 31.8954 24.0151 31.5776 23.9378 31.2712C23.9281 31.233 23.9205 31.2022 23.9162 31.1841C23.4743 29.3243 23.2287 27.2308 23.1998 25.0379L23.1989 25.0384C23.1986 25.0124 23.1987 24.9859 23.1984 24.9596C23.1971 24.8397 23.1979 24.7189 23.1957 24.5994C23.195 24.5612 23.1961 24.4966 23.1966 24.4584C23.1969 24.4431 23.1966 24.428 23.1966 24.4128C23.1974 24.2756 23.1989 24.1384 23.2013 24.0006C23.2081 23.6245 23.2216 23.251 23.241 22.8807L23.2403 22.8811C23.3766 20.235 23.8253 17.7486 24.5392 15.6571C24.6052 15.4636 24.502 15.2535 24.3085 15.1875C24.1198 15.123 23.9313 15.0613 23.7431 15.0024C23.5527 14.9427 23.3492 15.0454 23.2849 15.2344C22.5112 17.5057 22.0338 20.2005 21.9064 23.052C21.8902 23.4138 21.6933 23.743 21.3818 23.9276C19.6929 24.9286 18.1418 25.9897 16.8018 27.0593C16.5227 27.2821 16.1239 27.2736 15.854 27.0395C14.511 25.8751 13.3807 24.6105 12.5263 23.2983C10.8472 20.7199 10.4481 18.291 11.403 16.4601C11.4056 16.4557 11.4079 16.4513 11.4103 16.4471C11.5321 16.245 11.6587 16.0458 11.7905 15.8492C12.8877 14.3969 14.9299 13.5552 17.6383 13.4601C17.8097 13.454 17.9822 13.451 18.1563 13.451C19.8176 13.451 21.6005 13.7252 23.4137 14.2484C23.4534 14.2599 23.4936 14.2714 23.5333 14.2831C23.5639 14.2921 23.5946 14.3006 23.6252 14.3098C24.0443 14.435 24.4644 14.5739 24.8852 14.7252C24.895 14.7287 24.9049 14.7323 24.9147 14.7357C25.0244 14.7753 25.1339 14.8159 25.2433 14.8572C25.2776 14.8701 25.312 14.8832 25.3462 14.8964C25.3792 14.9091 25.4121 14.9214 25.4453 14.9341L25.4448 14.9348C26.3303 15.2775 27.2152 15.6761 28.0889 16.1302C29.7801 17.0088 31.3281 18.0389 32.6753 19.1689C30.1043 19.7579 27.1159 20.894 24.1112 22.426C23.9726 22.4968 23.8813 22.636 23.8726 22.7915C23.8621 22.9776 23.8483 23.352 23.8384 23.6496C23.8322 23.8364 24.0297 23.9602 24.1952 23.8733L24.1969 23.8722C27.1718 22.3101 30.1408 21.1425 32.6905 20.5255C33.1671 20.4103 33.4757 19.9525 33.4087 19.4669C33.3618 19.1276 33.309 18.7936 33.2506 18.4655C33.1772 18.0534 32.9516 17.6849 32.6186 17.4313C31.4244 16.5216 30.1083 15.6872 28.6995 14.9551C27.75 14.4618 26.7867 14.0295 25.8212 13.6608C25.6148 13.582 25.5262 13.3379 25.634 13.145C26.6287 11.3657 27.8116 10.3692 28.9641 10.3692C28.976 10.3692 28.9879 10.3692 28.9999 10.3695C30.3593 10.3938 31.7148 11.8093 32.7186 14.2531C33.2267 15.4902 33.6204 16.9168 33.8895 18.4671C33.8881 18.4658 33.8866 18.4647 33.8853 18.4634C34.0002 19.125 34.0927 19.8088 34.1613 20.5103C34.1554 20.514 34.1491 20.5173 34.1431 20.5211C34.1512 20.5293 34.1597 20.5375 34.1679 20.5458C34.2817 21.7229 34.3298 22.9486 34.3074 24.1993C34.2932 24.9905 34.2511 25.7707 34.1829 26.534C32.3642 28.0038 30.1155 29.4665 27.6438 30.7764C26.8315 31.2069 26.0194 31.6077 25.2151 31.9766C25.2027 31.9824 25.1902 31.988 25.1778 31.9938C25.1163 32.0218 25.0547 32.0503 24.9932 32.078L24.9918 32.0776C24.3254 32.3791 23.6654 32.6579 23.0163 32.9127C22.9795 32.9271 22.9434 32.9414 22.9069 32.9557C22.8613 32.9735 22.8157 32.9911 22.7702 33.0086C22.6613 33.0504 22.5528 33.0915 22.4446 33.132C22.4148 33.143 22.3848 33.1547 22.3551 33.1656C22.2237 33.2144 22.093 33.2618 21.9628 33.3083C21.9465 33.3141 21.9303 33.3203 21.9142 33.3261C20.5231 33.8215 19.1974 34.1955 17.9898 34.4279C15.0718 34.9896 13.6977 34.5587 13.3848 33.9683ZM15.4806 12.047C17.9504 10.2784 20.9017 9.32411 24 9.32411C24.8177 9.32411 25.625 9.39104 26.416 9.52153C26.6278 9.5565 26.6989 9.82688 26.5299 9.95943C25.7634 10.5603 25.0512 11.4494 24.421 12.6024C24.2671 12.8838 23.9409 13.0213 23.6324 12.9345C21.5444 12.3466 19.49 12.0701 17.5918 12.1367C16.8917 12.1613 16.2286 12.2322 15.6057 12.3471C15.4307 12.3793 15.336 12.1505 15.4806 12.047ZM35.6257 22.7428C35.6214 22.5746 35.8373 22.5028 35.9348 22.6398C36.0547 22.808 36.1702 22.9771 36.2809 23.147C36.4279 23.373 36.5648 23.5975 36.692 23.8207C36.7713 23.9599 36.7523 24.1344 36.6443 24.2527C36.473 24.441 36.2871 24.6355 36.0852 24.8372C36.0115 24.9107 35.9364 24.9845 35.8598 25.0582C35.7649 25.1501 35.6056 25.0801 35.6108 24.948C35.6201 24.7073 35.627 24.4657 35.6313 24.2229C35.6403 23.7256 35.6381 23.2319 35.6257 22.7428ZM34.1038 13.3559C34.196 13.4434 34.2872 13.5323 34.3774 13.6226C35.7917 15.0368 36.8809 16.6892 37.6094 18.489C37.6829 18.6704 37.5288 18.8603 37.3361 18.8257C36.9146 18.75 36.4403 18.7162 35.9152 18.725C35.5513 18.731 35.2351 18.476 35.1712 18.1177C34.8858 16.5177 34.4732 15.0398 33.9435 13.7499C33.9132 13.6763 33.8827 13.6037 33.8518 13.5317C33.7844 13.3748 33.9799 13.2382 34.1038 13.3559ZM39.6544 20.6721C39.0221 17.668 37.5354 14.9078 35.3137 12.6861C32.2916 9.66409 28.2738 8 24 8C19.7263 8 15.7083 9.66409 12.6863 12.6861C11.9512 13.4211 11.2975 14.2152 10.7276 15.0574C10.5581 15.283 10.4062 15.5213 10.2713 15.7707C8.7907 18.2309 8 21.0546 8 23.9999C8 28.2738 9.6643 32.2916 12.6863 35.3136C15.7083 38.3355 19.7263 40 24 40C28.2738 40 32.2916 38.3355 35.3137 35.3136C36.7399 33.8874 37.8633 32.2392 38.6525 30.4471C38.7489 30.2485 38.833 30.0452 38.9054 29.8379C39.6237 28.0024 40 26.0301 40 23.9999C40 22.8824 39.8852 21.7829 39.6631 20.7136C39.6601 20.6998 39.6574 20.686 39.6544 20.6721Z" fill="white"/>
</g>
<defs>
<clipPath id="clip0_47_23362">
<rect width="48" height="48" fill="white"/>
</clipPath>
</defs>
</svg>
