<svg width="72" height="72" viewBox="0 0 72 72" fill="none" xmlns="http://www.w3.org/2000/svg">
<g clip-path="url(#clip0_0_382)">
<path d="M58.1791 12.3762V52.7297H13.7748V12.3762H58.1791Z" fill="white" stroke="white" stroke-width="0.050266"/>
<path fill-rule="evenodd" clip-rule="evenodd" d="M71.9755 35.9997C71.9755 55.8557 55.8687 71.9519 35.9995 71.9519C16.1305 71.9519 0.0234375 55.8557 0.0234375 35.9997C0.0234375 16.1439 16.1305 0.0476074 35.9995 0.0476074C55.8687 0.0476074 71.9755 16.1439 71.9755 35.9997ZM25.8049 50.3069H18.823C17.3558 50.3069 16.6311 50.3069 16.1893 50.0244C15.712 49.7152 15.4204 49.2029 15.385 48.6376C15.3585 48.1167 15.7209 47.4806 16.4456 46.2087L33.6848 15.8424C34.4184 14.5529 34.7896 13.9081 35.258 13.6697C35.7617 13.4136 36.3627 13.4136 36.8665 13.6697C37.3349 13.9081 37.7061 14.5529 38.4396 15.8424L41.9837 22.0248L42.0017 22.0563C42.794 23.4397 43.1958 24.1412 43.3712 24.8775C43.5656 25.6812 43.5656 26.5291 43.3712 27.3328C43.1945 28.0747 42.7968 28.7813 41.9925 30.1856L32.9371 46.1823L32.9137 46.2233C32.1162 47.618 31.712 48.3249 31.1519 48.8582C30.542 49.4413 29.8085 49.865 29.0042 50.1039C28.2707 50.3069 27.4488 50.3069 25.8049 50.3069ZM43.4366 50.3069H53.4409C54.9168 50.3069 55.6594 50.3069 56.1015 50.0158C56.5786 49.7065 56.879 49.1852 56.9058 48.6203C56.9312 48.1162 56.5767 47.5049 55.8821 46.307C55.8582 46.2662 55.8342 46.2247 55.8098 46.1825L50.7985 37.6154L50.7415 37.519C50.0373 36.329 49.6819 35.728 49.2253 35.4957C48.7219 35.2396 48.1293 35.2396 47.6258 35.4957C47.1662 35.7342 46.795 36.3613 46.0615 37.6242L41.068 46.1913L41.0509 46.2208C40.32 47.4818 39.9546 48.1119 39.981 48.6289C40.0163 49.1943 40.308 49.7152 40.7852 50.0244C41.2183 50.3069 41.9607 50.3069 43.4366 50.3069Z" fill="#FF2A2A"/>
</g>
<defs>
<clipPath id="clip0_0_382">
<rect width="72" height="72" fill="white"/>
</clipPath>
</defs>
</svg>
