<svg width="72" height="72" viewBox="0 0 72 72" fill="none" xmlns="http://www.w3.org/2000/svg">
<g clip-path="url(#clip0_0_537)">
<path d="M72 36C72 16.3901 55.8823 0.493164 36 0.493164C16.1177 0.493164 0 16.3901 0 36C0 55.6099 16.1177 71.5069 36 71.5069C55.8823 71.5069 72 55.6099 72 36Z" fill="#6777A4"/>
<path d="M54.9788 24.8013V46.7017L35.7483 57.6538L16.5042 46.7017V24.8013L35.7483 13.8423L54.9788 24.8013ZM50.1633 27.5269L49.9016 27.3774L36.0051 19.4653L35.7493 19.3188L35.4934 19.4644L21.5891 27.3774L21.3274 27.5269V43.9702L21.5891 44.1187L35.4934 52.0317L35.7493 52.1772L36.0051 52.0317L49.9016 44.1187L50.1633 43.9702V27.5269Z" fill="white" stroke="white" stroke-width="1.03562"/>
<path d="M43.9218 30.4976L41.1288 32.0894L36.0009 29.1655L35.7451 29.02L35.4882 29.1655L30.1044 32.2358L29.8427 32.3853V39.1118L30.1044 39.2612L35.4882 42.3306L35.7451 42.4771L36.0009 42.3306L41.1288 39.4067L43.9228 41.0044L35.7441 45.6597L27.0312 40.7046V30.7993L35.7441 25.8364L43.9218 30.4976Z" fill="white" stroke="white" stroke-width="1.03562"/>
</g>
<defs>
<clipPath id="clip0_0_537">
<rect width="72" height="72" fill="white"/>
</clipPath>
</defs>
</svg>
