<svg width="72" height="72" viewBox="0 0 72 72" fill="none" xmlns="http://www.w3.org/2000/svg">
<g clip-path="url(#clip0_0_447)">
<path d="M72 36C72 16.3901 55.8823 0.493164 36 0.493164C16.1177 0.493164 0 16.3901 0 36C0 55.6099 16.1177 71.5069 36 71.5069C55.8823 71.5069 72 55.6099 72 36Z" fill="#E6007A"/>
<path d="M36.5767 7.66382C39.4462 7.66382 42.019 8.33021 43.856 9.38062C45.7075 10.4393 46.7163 11.8231 46.7164 13.24C46.7164 14.6568 45.7075 16.0406 43.856 17.0994C42.019 18.1498 39.4462 18.8162 36.5767 18.8162C33.7074 18.8161 31.1354 18.1497 29.2984 17.0994C27.4468 16.0406 26.4371 14.6569 26.4371 13.24C26.4371 11.8231 27.4468 10.4393 29.2984 9.38062C31.1354 8.33033 33.7075 7.66385 36.5767 7.66382Z" fill="white" stroke="white" stroke-width="1.03562"/>
<path d="M36.5767 53.5793C39.4462 53.5793 42.019 54.2457 43.856 55.2961C45.7075 56.3548 46.7163 57.7387 46.7164 59.1555C46.7164 60.5724 45.7075 61.9562 43.856 63.0149C42.019 64.0653 39.4462 64.7317 36.5767 64.7317C33.7074 64.7317 31.1354 64.0652 29.2984 63.0149C27.4468 61.9562 26.4371 60.5724 26.4371 59.1555C26.4371 57.7386 27.4468 56.3549 29.2984 55.2961C31.1354 54.2459 33.7075 53.5794 36.5767 53.5793Z" fill="white" stroke="white" stroke-width="1.03562"/>
<path d="M16.5764 16.5991C18.4335 15.5535 20.1662 15.3811 21.426 16.0962C22.6821 16.8093 23.3932 18.3633 23.4006 20.4614C23.408 22.5465 22.7107 25.066 21.2776 27.5063C19.8445 29.9466 17.9722 31.802 16.1282 32.8403C14.2712 33.8859 12.5393 34.0583 11.2795 33.3433C10.0233 32.6302 9.31134 31.0763 9.30396 28.978C9.29666 26.8929 9.99485 24.3735 11.428 21.9331C12.861 19.493 14.7324 17.6374 16.5764 16.5991Z" fill="white" stroke="white" stroke-width="1.03562"/>
<path d="M57.027 39.5586C58.8836 38.5126 60.6151 38.3402 61.8737 39.0547C63.1286 39.7671 63.8396 41.32 63.8464 43.418C63.8531 45.5028 63.1546 48.0224 61.7214 50.4629C60.2884 52.9028 58.4172 54.7583 56.5739 55.7969C54.7174 56.8429 52.9859 57.0152 51.7272 56.3008C50.4724 55.5882 49.7613 54.0353 49.7546 51.9375C49.7479 49.8528 50.4465 47.3339 51.8796 44.8936V44.8926C53.3125 42.4526 55.1838 40.5972 57.027 39.5586Z" fill="white" stroke="white" stroke-width="1.03562"/>
<path d="M11.2855 39.0525C12.5452 38.3375 14.2773 38.51 16.1341 39.5554C17.9781 40.5937 19.8505 42.4492 21.2835 44.8894C22.7166 47.3298 23.4138 49.8493 23.4066 51.9343C23.3992 54.0325 22.6879 55.5864 21.4319 56.2996C20.1721 57.0147 18.4394 56.8423 16.5823 55.7966C14.7384 54.7583 12.8669 52.9028 11.4339 50.4626C10.0007 48.0222 9.30253 45.5028 9.30988 43.4177C9.3173 41.3195 10.0293 39.7655 11.2855 39.0525Z" fill="white" stroke="white" stroke-width="1.03562"/>
<path d="M51.7272 16.0984C52.9859 15.3839 54.7174 15.5563 56.5739 16.6023C58.4172 17.6409 60.2883 19.4963 61.7214 21.9363C63.1545 24.3767 63.8531 26.8964 63.8464 28.9812C63.8396 31.0791 63.1286 32.632 61.8737 33.3445C60.6151 34.059 58.8835 33.8866 57.027 32.8406C55.1837 31.8019 53.3126 29.9458 51.8796 27.5056C50.4465 25.0652 49.7479 22.5464 49.7546 20.4617C49.7613 18.3638 50.4724 16.8109 51.7272 16.0984Z" fill="white" stroke="white" stroke-width="1.03562"/>
</g>
<defs>
<clipPath id="clip0_0_447">
<rect width="72" height="72" fill="white"/>
</clipPath>
</defs>
</svg>
