<svg width="48" height="48" viewBox="0 0 48 48" fill="none" xmlns="http://www.w3.org/2000/svg">
<g clip-path="url(#clip0_47_23351)">
<mask id="mask0_47_23351" style="mask-type:luminance" maskUnits="userSpaceOnUse" x="0" y="0" width="48" height="48">
<path d="M48 0H0V48H48V0Z" fill="white"/>
</mask>
<g mask="url(#mask0_47_23351)">
<path d="M24 48C37.3001 48 48 37.3001 48 24C48 10.6999 37.3001 0 24 0C10.6999 0 0 10.6999 0 24C0 37.3001 10.6999 48 24 48Z" fill="#477DA7"/>
<path d="M30.5991 27.8C30.5991 24.3 28.4991 23.1 24.2991 22.6001C21.2991 22.2 20.6991 21.4001 20.6991 20C20.6991 18.5998 21.6992 17.7 23.6991 17.7C25.4991 17.7 26.4992 18.3 26.9991 19.8C27.0992 20.1 27.3992 20.3 27.6992 20.3H29.2991C29.6991 20.3 29.9991 20 29.9991 19.6001V19.5C29.5991 17.3 27.7991 15.6 25.4991 15.4001V13.0001C25.4991 12.6 25.1991 12.3 24.6992 12.2H23.1992C22.7991 12.2 22.4991 12.5 22.3991 13.0001V15.3C19.3991 15.7001 17.4992 17.7 17.4992 20.2001C17.4992 23.5001 19.4991 24.8 23.6991 25.3001C26.4992 25.8 27.3992 26.4 27.3992 28.0001C27.3992 29.6002 25.9991 30.7001 24.0992 30.7001C21.4991 30.7001 20.5991 29.6 20.2991 28.1C20.1992 27.7001 19.8992 27.5 19.5992 27.5H17.8991C17.4992 27.5 17.1992 27.8 17.1992 28.2V28.3001C17.5991 30.8 19.1991 32.6 22.4991 33.1001V35.5C22.4991 35.9 22.7991 36.1999 23.2991 36.2999H24.7991C25.1991 36.2999 25.4991 36 25.5992 35.5V33.1001C28.5992 32.6 30.5991 30.5 30.5991 27.8Z" fill="#F7F7F7"/>
<path d="M18.9019 38.2999C11.1019 35.5 7.10187 26.8 10.002 19.0999C11.502 14.8999 14.802 11.6999 18.9019 10.1999C19.302 9.99998 19.5019 9.7 19.5019 9.19984V7.79992C19.5019 7.39984 19.302 7.09984 18.9019 7C18.8018 7 18.6019 7 18.5019 7.09984C9.00195 10.0999 3.80187 20.2 6.80187 29.6999C8.60187 35.2999 12.902 39.5999 18.5019 41.3999C18.9019 41.5999 19.302 41.3999 19.4018 40.9999C19.5019 40.9 19.5019 40.7999 19.5019 40.6V39.1999C19.5019 38.8999 19.2019 38.5 18.9019 38.2999ZM29.502 7.09984C29.1019 6.89992 28.7018 7.09984 28.602 7.49992C28.5019 7.6 28.5019 7.69984 28.5019 7.9V9.29992C28.5019 9.7 28.802 10.0999 29.1019 10.3C36.902 13.0999 40.9021 21.7999 38.0019 29.5C36.5019 33.7 33.2018 36.8999 29.1019 38.3999C28.7018 38.5999 28.5019 38.8999 28.5019 39.4V40.7999C28.5019 41.2 28.7018 41.5 29.1019 41.5999C29.202 41.5999 29.4019 41.5999 29.502 41.5C39.0019 38.5 44.202 28.3999 41.202 18.8999C39.4021 13.1999 35.0018 8.89984 29.502 7.09984Z" fill="#F7F7F7"/>
</g>
</g>
<defs>
<clipPath id="clip0_47_23351">
<rect width="48" height="48" fill="white"/>
</clipPath>
</defs>
</svg>
