<svg width="72" height="72" viewBox="0 0 72 72" fill="none" xmlns="http://www.w3.org/2000/svg">
<g clip-path="url(#clip0_0_465)">
<path d="M36 72C55.8823 72 72 55.8823 72 36C72 16.1178 55.8823 0 36 0C16.1178 0 0 16.1178 0 36C0 55.8823 16.1178 72 36 72Z" fill="#6FBCEF"/>
<mask id="mask0_0_465" style="mask-type:luminance" maskUnits="userSpaceOnUse" x="0" y="0" width="72" height="72">
<path d="M72 36C72 55.8821 55.8821 72 36 72C16.1177 72 0 55.8821 0 36C0 16.1177 16.1177 0 36 0C55.8821 0 72 16.1177 72 36Z" fill="#8ECFF6"/>
</mask>
<g mask="url(#mask0_0_465)">
<path d="M40.6786 -1.43994L62.6386 6.84006L70.5586 22.8601C70.5586 22.8601 61.0186 14.5801 49.8586 8.82006C38.6986 3.06006 21.0586 1.44006 21.0586 1.44006L40.6786 -1.43994Z" fill="#6CB3FF"/>
<path d="M5.70214 12.241C5.70214 12.241 26.2778 18.1808 37.2597 23.2205C48.2419 28.2602 51.9815 32.0476 58.8601 40.3205C63.2218 45.5668 68.1783 55.0992 68.1783 55.0992L59.7615 64.6198C59.7615 64.6198 56.9798 52.5681 52.5615 46.2598C46.5931 37.7382 38.6993 33.8403 31.1406 30.4202C23.5819 27.0001 0 20.5532 0 20.5532L5.70214 12.241Z" fill="#6CB3FF"/>
<path d="M0.900567 46.9795L-0.539062 36.1802C-0.539062 36.1802 16.381 42.3002 27.181 49.8602C37.981 57.4202 44.4606 71.9995 44.4606 71.9995L32.4006 72.5395C32.4006 72.5395 31.141 69.1202 22.501 59.5802C13.861 50.0402 0.900567 46.9795 0.900567 46.9795Z" fill="#6CB3FF"/>
</g>
<path d="M33.674 5.05029C34.6448 3.36877 37.0722 3.36875 38.0431 5.05029L55.1837 34.7388C59.218 41.7265 59.2179 50.0672 55.1837 57.0532C51.1484 64.0413 43.9262 68.2114 35.8585 68.2114C27.7907 68.2114 20.5673 64.0412 16.5333 57.0532C12.4994 50.0654 12.4994 41.725 16.5333 34.7388L33.674 5.05029ZM24.6339 29.7798L20.4611 37.0083C17.2476 42.5744 17.2475 49.2212 20.4611 54.7876C23.6748 60.3532 29.4313 63.6763 35.8585 63.6763C40.1264 63.6762 44.1008 62.2092 47.2306 59.5923L47.2677 59.562L47.2853 59.5171C47.6943 58.4877 48.9666 54.7094 47.3947 50.8052V50.8042C45.9402 47.1946 42.451 44.3399 37.0812 42.2944L36.5245 42.0776C30.8358 39.7943 27.149 36.3256 25.5275 31.7769C25.2967 31.1297 25.1173 30.4811 24.9825 29.8354L24.882 29.3511L24.6339 29.7798ZM24.7189 30.3872C24.841 30.8921 24.9917 31.3983 25.172 31.9038C26.8929 36.731 30.8689 40.3424 36.9464 42.6479C42.267 44.6747 45.6451 47.4736 47.0441 50.9458C48.5395 54.6593 47.3646 58.2713 46.9493 59.3335C43.8939 61.8732 40.021 63.2973 35.8585 63.2974C29.5662 63.2974 23.9344 60.0469 20.7882 54.5981C17.6422 49.1486 17.6421 42.6459 20.7882 37.1968L24.7189 30.3872ZM37.1964 12.6558C36.602 11.6259 35.1151 11.6259 34.5206 12.6558L30.8663 18.9858L30.8605 18.9946L30.8566 19.0034C29.8973 21.179 28.2573 25.9219 29.8273 30.2896C31.0127 33.5851 33.8694 36.1367 38.2755 37.897L38.7062 38.0649C45.396 40.6117 49.7355 44.3631 51.6515 49.1987C51.964 49.988 52.1958 50.7695 52.3615 51.5327L52.506 52.1978L52.7257 51.5532C54.3564 46.7632 53.8659 41.5289 51.256 37.0083L37.1964 12.6558Z" fill="white" stroke="white" stroke-width="0.378"/>
</g>
<defs>
<clipPath id="clip0_0_465">
<rect width="72" height="72" fill="white"/>
</clipPath>
</defs>
</svg>
