<svg width="48" height="48" viewBox="0 0 48 48" fill="none" xmlns="http://www.w3.org/2000/svg">
<g clip-path="url(#clip0_0_749)">
<path d="M47.2766 29.8057C44.0711 42.663 31.0488 50.4877 18.1901 47.2815C5.33659 44.076 -2.48815 31.053 0.718845 18.1965C3.92285 5.33771 16.9451 -2.48779 29.8001 0.717709C42.6581 3.92321 50.4821 16.9477 47.2766 29.8057Z" fill="#FC6A18"/>
<path d="M34.5802 20.5806C35.0579 17.3871 32.6264 15.6703 29.3017 14.5251L30.3802 10.1991L27.7469 9.54281L26.6969 13.7548C26.0047 13.5823 25.2937 13.4196 24.5872 13.2583L25.6447 9.01855L23.0129 8.3623L21.9337 12.6868C21.3607 12.5563 20.7982 12.4273 20.2522 12.2916L20.2552 12.2781L16.6237 11.3713L15.9232 14.1838C15.9232 14.1838 17.8769 14.6316 17.8357 14.6593C18.9022 14.9256 19.0949 15.6313 19.0627 16.1908L17.8342 21.1191C17.9077 21.1378 18.0029 21.1648 18.1079 21.2068C18.0202 21.1851 17.9264 21.1611 17.8297 21.1378L16.1077 28.0416C15.9772 28.3656 15.6464 28.8516 14.9009 28.6671C14.9272 28.7053 12.9869 28.1893 12.9869 28.1893L11.6797 31.2036L15.1064 32.0578C15.7439 32.2176 16.3687 32.3848 16.9837 32.5423L15.8939 36.9178L18.5242 37.5741L19.6034 33.2451C20.3219 33.4401 21.0194 33.6201 21.7019 33.7896L20.6264 38.0983L23.2597 38.7546L24.3494 34.3873C28.8397 35.2371 32.2162 34.8943 33.6374 30.8331C34.7827 27.5631 33.5804 25.6768 31.2179 24.4468C32.9384 24.0501 34.2344 22.9183 34.5802 20.5806ZM28.5637 29.0173C27.7499 32.2873 22.2442 30.5196 20.4592 30.0763L21.9052 24.2796C23.6902 24.7251 29.4142 25.6071 28.5637 29.0173ZM29.3782 20.5333C28.6357 23.5078 24.0532 21.9966 22.5667 21.6261L23.8777 16.3686C25.3642 16.7391 30.1514 17.4306 29.3782 20.5333Z" fill="white"/>
</g>
<defs>
<clipPath id="clip0_0_749">
<rect width="48" height="48" fill="white"/>
</clipPath>
</defs>
</svg>
