<svg width="72" height="72" viewBox="0 0 72 72" fill="none" xmlns="http://www.w3.org/2000/svg">
<path d="M6.48071 19.1002L35.8207 36.0401L65.1607 19.1002L35.8207 2.16016L6.48071 19.1002Z" fill="#C85862"/>
<path d="M6.48071 19.1001L35.8207 36.04V69.9203L6.48071 52.9802V19.1001Z" fill="#C32942"/>
<path d="M65.1585 19.1001L35.8185 36.04V69.9203L65.1585 52.9802V19.1001Z" fill="#7D1729"/>
<path d="M16.2656 47.3339L26.0444 41.6873V52.9805L16.2656 47.3339Z" fill="#C85862"/>
<path d="M26.0421 41.6872L16.2598 36.0403V47.3338L26.0421 41.6872Z" fill="#7D1729"/>
<path d="M55.3767 47.3339L45.5977 41.6873V52.9805L55.3767 47.3339Z" fill="#C85862"/>
<path d="M45.5977 41.6872L55.3803 36.0403V47.3338L45.5977 41.6872Z" fill="#C32942"/>
<path d="M26.0391 19.0998L35.8179 13.4531V24.7465L26.0391 19.0998Z" fill="#7D1729"/>
<path d="M45.5972 19.1L35.8185 13.4534V24.7467L45.5972 19.1Z" fill="#C32942"/>
</svg>
