<svg width="72" height="72" viewBox="0 0 72 72" fill="none" xmlns="http://www.w3.org/2000/svg">
<g clip-path="url(#clip0_0_488)">
<path fill-rule="evenodd" clip-rule="evenodd" d="M36 72C16.2 72 0 55.8 0 35.82C0.18 16.02 16.2 -0.179979 36.18 2.07995e-05C55.98 0.180021 72 16.2 72 36.36C71.82 55.98 55.8 72 36 72Z" fill="#0089FF"/>
<path d="M20.0557 56.4907C20.1248 56.4908 20.2164 56.4963 20.3281 56.5112C20.5204 56.5369 20.728 56.583 20.9111 56.6333C21.3323 57.0863 21.7402 57.6517 22.0156 58.2026L22.0537 58.2788L22.1045 58.3472C22.4668 58.8303 22.888 59.2264 23.3613 59.5054C22.25 59.4398 21.2129 59.1213 20.3809 58.4741L20.3535 58.4526L20.3252 58.4341L20.2002 58.3394C20.0729 58.2331 19.9408 58.0928 19.835 57.9399C19.6903 57.7309 19.6684 57.6092 19.666 57.6001C19.666 57.3842 19.723 57.1077 19.834 56.854C19.909 56.6826 19.9904 56.5649 20.0557 56.4907ZM48.916 12.2837L48.9385 12.2847H48.9609C50.387 12.2847 51.7103 12.7601 52.5635 13.7554L52.5869 13.7827L52.6123 13.8081C52.7062 13.902 52.7885 13.9863 52.8496 14.0718C52.8609 14.0876 52.8678 14.1016 52.874 14.1118C52.8736 14.4556 52.8697 14.7542 52.8223 15.0229C52.7813 15.2552 52.7174 15.3941 52.6523 15.481C52.5216 15.5611 52.3974 15.582 52.2656 15.5601C52.0958 15.5316 51.8624 15.4244 51.6094 15.1714C51.3741 14.9361 51.1742 14.6987 50.9463 14.4253C50.7362 14.1731 50.4996 13.8899 50.2168 13.6021C49.7412 12.9849 49.1498 12.5212 48.4834 12.2739C48.6255 12.2744 48.7698 12.2767 48.916 12.2837ZM33.8857 38.6069L33.082 38.4858L24.46 37.1841L24.5703 36.3521L33.5244 37.6548L34.3896 37.7808L34.582 36.9282L35.8428 31.3481L36.0645 30.3638L35.0684 30.2065L25.7119 28.729L25.8389 27.7046L35.5137 29.0161L36.29 29.1216L36.5371 28.3784C36.7253 27.8137 36.8678 27.2919 36.999 26.8325C37.1329 26.3641 37.2572 25.9533 37.418 25.5513L37.4375 25.5024L37.4512 25.4526C38.3574 22.1902 39.2198 19.1228 41.2568 16.4067C42.4058 14.8749 43.6194 13.7132 45.0576 13.0171C44.9949 13.0731 44.9326 13.1313 44.8721 13.1919C43.8968 14.1672 42.9245 15.5254 42.332 16.9077L42.3164 16.9438L42.3037 16.981C41.6649 18.8975 41.1196 20.8552 40.5801 22.811C40.0386 24.774 39.5031 26.735 38.8799 28.6938L38.543 29.7544L39.6445 29.9155L48.4932 31.2017L48.2646 32.0591L39.5615 30.7456L38.6602 30.6099L38.4922 31.5054L37.4121 37.2661L37.2295 38.2388L38.209 38.3755L47.4121 39.6675L47.1836 40.5249L37.9346 39.2046L37.1348 39.0903L36.8975 39.8618C36.5268 41.0665 36.2457 42.3277 35.96 43.4927C35.6689 44.6791 35.3682 45.7885 34.9482 46.7964L34.9395 46.8188L34.9307 46.8423C34.0288 49.3675 33.1437 51.8443 32.0859 54.1372C31.151 56.1239 29.7417 57.6661 27.917 58.5737C29.4297 57.0203 30.2787 55.0504 30.792 53.1685L30.7979 53.1489C31.8746 48.8418 32.9613 44.676 33.8662 40.3325L33.8857 40.2378V38.6069Z" fill="white" stroke="white" stroke-width="1.89"/>
</g>
<defs>
<clipPath id="clip0_0_488">
<rect width="72" height="72" fill="white"/>
</clipPath>
</defs>
</svg>
