<svg width="12" height="16" viewBox="0 0 12 16" fill="none" xmlns="http://www.w3.org/2000/svg">
<path d="M0 9.33703V6.66313C0 2.40817 2.15719 0 5.95315 0C9.74911 0 11.562 2.20676 11.8193 5.61333H9.85699C9.62057 3.45369 8.60416 1.89401 5.95315 1.89401C3.04079 1.89401 1.94154 3.74507 1.94154 6.66313V9.33703C1.94154 12.2551 3.04079 14.1062 5.95315 14.1062C8.32611 14.1062 9.92335 12.9707 9.92335 9.27271V9.16127H5.93239V7.3787H11.8649V9.16127C11.8649 13.2148 10.0105 16.0001 5.95315 16.0001C2.15719 16.0001 0 13.592 0 9.33703Z" fill="white"/>
</svg>
