<svg width="69" height="15" viewBox="0 0 69 15" fill="none" xmlns="http://www.w3.org/2000/svg">
<path d="M1.67028 11.6934H0V0H5.09602C7.43499 0 8.85455 1.41947 8.85455 3.50772C8.85455 5.59588 7.43499 7.01535 5.09602 7.01535H1.67193V11.6934H1.67028ZM7.18427 3.50772C7.18427 2.33897 6.51548 1.41947 5.09602 1.41947H1.67193V5.59588H5.09602C6.51548 5.59588 7.18427 4.67638 7.18427 3.50772ZM9.47341 5.26154C9.64059 3.87422 10.8093 2.7553 13.166 2.7553C14.6031 2.7553 15.8217 3.13957 16.4406 4.17486C16.7075 4.62655 16.8586 5.22773 16.8586 5.92868V11.6918H15.2542V10.6051C14.7527 11.2739 13.7511 11.941 12.3301 11.941C10.5585 11.941 9.05543 11.0215 9.05543 9.1004C9.05543 7.5973 10.0747 6.5283 12.2465 6.34345L15.2542 6.09264V5.92547C15.2542 4.75672 14.7526 4.00439 13.166 4.00439C11.896 4.00439 11.2112 4.506 11.1276 5.25668H9.47341V5.26154ZM15.2526 7.93495V7.26616L12.412 7.51697C11.2417 7.61663 10.6582 8.18566 10.6582 9.10361C10.6582 10.2739 11.4942 10.6902 12.4956 10.6902C14.0003 10.6919 15.2526 9.68876 15.2526 7.93495ZM21.8019 4.34359C20.6331 4.34359 19.8808 5.01238 19.8808 6.51548V11.695H18.2765V3.00611H19.8808V4.00924C20.2988 3.25692 20.9659 2.83893 22.2199 2.83893H22.6715V4.34204H21.8019V4.34359ZM23.1554 5.26154C23.3227 3.87422 24.4913 2.7553 26.8481 2.7553C28.2852 2.7553 29.5037 3.13957 30.1227 4.17486C30.3895 4.62655 30.5406 5.22773 30.5406 5.92868V11.6918H28.9362V10.6051C28.4347 11.2739 27.4332 11.941 26.0121 11.941C24.2405 11.941 22.7375 11.0215 22.7375 9.1004C22.7375 7.5973 23.7567 6.5283 25.9285 6.34345L28.9362 6.09264V5.92547C28.9362 4.75672 28.4347 4.00439 26.8481 4.00439C25.5781 4.00439 24.8932 4.506 24.8096 5.25668H23.1554V5.26154ZM28.9362 7.93495V7.26616L26.0956 7.51697C24.9253 7.61663 24.3418 8.18566 24.3418 9.10361C24.3418 10.2739 25.1778 10.6902 26.1793 10.6902C27.6824 10.6919 28.9362 9.68876 28.9362 7.93495ZM38.4258 10.5247C37.9241 11.3607 36.9227 11.9442 35.5852 11.9442C32.9793 11.9442 31.5598 9.85594 31.5598 7.3498C31.5598 4.84356 32.9793 2.7553 35.5852 2.7553C36.921 2.7553 37.9241 3.34045 38.4258 4.17486V0H40.0284V11.695H38.4241V10.5247H38.4258ZM35.836 4.09288C34.0821 4.09288 33.1626 5.51235 33.1626 7.3498C33.1626 9.18724 34.0821 10.6083 35.836 10.6083C37.5898 10.6083 38.5093 9.10526 38.5093 7.3498C38.5093 5.59588 37.5898 4.09288 35.836 4.09288ZM46.2112 10.3576V11.6934H41.0654V10.3576H42.8369V4.34359H41.0654V3.00776H44.4396V10.3591H46.2112V10.3576ZM44.4396 1.67028H42.8353V0H44.4396V1.67028ZM52.9597 10.3576C52.6256 10.8591 51.7076 11.6098 50.203 11.6098C47.7639 11.6098 46.1774 9.60523 46.1774 7.18262C46.1774 4.76002 47.7639 2.7553 50.203 2.7553C51.7057 2.7553 52.6256 3.50772 52.9597 4.00759V3.00455H54.5644V10.7722C54.5644 13.5293 52.9772 14.9487 50.4536 14.9487C48.5147 14.9487 47.0954 13.9456 46.761 12.4425H48.4312C48.5827 13.0438 49.1995 13.6948 50.4516 13.6948C52.2895 13.6948 52.9578 12.5261 52.9578 10.7707V10.3576H52.9597ZM50.372 4.09288C48.7848 4.09288 47.7813 5.51235 47.7813 7.18417C47.7813 8.85445 48.7828 10.2756 50.372 10.2756C52.0418 10.2756 53.0452 8.8561 53.0452 7.18417C53.0433 5.51235 52.0418 4.09288 50.372 4.09288ZM57.6379 4.00924C58.1391 3.08974 59.1406 2.75695 60.144 2.75695C61.3126 2.75695 62.3995 3.25847 62.9008 4.26005C63.403 3.34045 64.3209 2.75695 65.8256 2.75695C67.6624 2.75695 69 3.84362 69 6.01387V11.6934H67.3953V6.26467C67.3953 4.84521 66.8105 4.09288 65.4904 4.09288C64.4044 4.09288 63.3184 4.76157 63.3184 6.51548V11.695H61.7147V6.26623C61.7147 4.84676 61.129 4.09443 59.8099 4.09443C58.7229 4.09443 57.6379 4.76322 57.6379 6.51704V11.6966H56.0332V3.00611H57.6379V4.00924Z" fill="white"/>
</svg>
