<svg width="121" height="16" viewBox="0 0 121 16" fill="none" xmlns="http://www.w3.org/2000/svg">
<path fill-rule="evenodd" clip-rule="evenodd" d="M13.6545 9.36766C12.9319 11.9216 10.571 13.7941 7.76977 13.7941C4.39406 13.7941 1.65751 11.0749 1.65751 7.7206C1.65751 4.36628 4.39406 1.64706 7.76977 1.64706C9.66425 1.64706 11.3574 2.50355 12.4785 3.8482L13.7555 2.79811C12.3304 1.08881 10.178 0 7.76977 0C3.47862 0 0 3.45664 0 7.7206C0 11.9845 3.47862 15.4411 7.76977 15.4411C10.0763 15.4411 12.1481 14.4424 13.571 12.8564V15.1324H15.5395V11.4265V11.1176L14.9918 10.5734L13.7783 9.36766H15.3622H15.5395V7.7206H13.8818H7.6661V9.36766H13.6545ZM24.1917 0.308792H17.6134V15.1324H19.5632V11.2095L17.7149 9.36766H22.3768L27.6083 15.1324H30.0064L24.5572 9.22439H24.8135C27.6205 9.09865 29.6353 7.33205 29.6353 4.80885C29.6353 2.0755 27.4714 0.308792 24.1917 0.308792ZM27.6855 4.80885C27.6855 6.55493 26.3556 7.7206 24.1917 7.7206H19.5632V1.99089H24.1917C26.3578 1.99089 27.6855 3.06286 27.6855 4.80885ZM36.0486 0.308792H38.705L43.0763 11.8094H33.5014L32.2163 15.1324H30.3537L36.0486 0.308792ZM43.0775 11.8127L43.0763 11.8094H43.0813L43.0775 11.8127ZM43.0775 11.8127L44.3392 15.1324H42.4765L41.6764 13.0627L43.0775 11.8127ZM40.6328 10.2345L37.4619 1.99089H37.2687L34.0768 10.2345H40.6307H40.6328ZM89.0529 0.308792H86.3967L80.701 15.1324H82.5634L83.8499 11.8094H93.4244L93.4254 11.8127L92.0218 13.0586L92.8243 15.1324H94.6867L93.4254 11.8127L93.4293 11.8094H93.4244L89.0529 0.308792ZM87.81 1.99089L90.9802 10.2345H90.9783H84.4249L87.6164 1.99089H87.81ZM43.6627 0.308985L41.6456 0.308792L45.9186 7.7208H47.9321L43.6627 0.308985ZM54.4916 0.308792L52.4746 0.308985L47.0837 9.67345V15.1318L49.0535 15.1325V9.74625L54.4916 0.308792ZM108.363 6.93003V13.5216H116.96V15.1324H106.397V9.53367V8.27924V0.308792H117.064V1.95585H108.363V6.89703H110.175H114.424V8.54408H109.848L108.363 6.93003ZM119.858 2.26474C120.527 2.26474 121 1.79497 121 1.12956C121 0.466964 120.527 0 119.858 0C119.195 0 118.721 0.478096 118.721 1.12956C118.721 1.79497 119.195 2.26474 119.858 2.26474ZM119.861 2.10812C119.294 2.10812 118.893 1.70272 118.893 1.12956C118.893 0.570346 119.294 0.159332 119.861 0.159332C120.428 0.159332 120.829 0.570346 120.829 1.12956C120.829 1.70272 120.428 2.10812 119.861 2.10812ZM119.395 1.81181H119.573V1.25821H119.786L120.203 1.81181H120.431L119.988 1.2526H119.997C120.25 1.2526 120.442 1.08484 120.442 0.850003C120.442 0.603937 120.25 0.424953 119.997 0.424953H119.395V1.81181ZM119.573 1.1072V0.581576H119.972C120.135 0.581576 120.264 0.687765 120.264 0.847195C120.264 1.00653 120.14 1.1072 119.972 1.1072H119.573ZM56.6392 4.19262C56.6392 6.09349 58.5259 6.44235 60.6136 6.76915H60.6154C63.1847 7.19827 66.0946 7.77171 66.0946 11.044C66.0946 13.7428 64.0678 15.4411 60.5956 15.4411C56.891 15.4411 54.607 13.4662 54.5952 10.27V10.248V10.2461V9.36766H56.3992V10.2461C56.4189 12.4756 57.9653 13.805 60.6136 13.805C62.921 13.805 64.2648 12.7824 64.2648 11.1664C64.2648 9.18326 62.2973 8.85442 60.1706 8.50759C57.621 8.09851 54.8115 7.42478 54.8115 4.29493C54.8115 1.69836 56.6983 0 60.1706 0C63.6429 0 65.7504 1.99641 65.7697 5.04417H64.0029C64.0029 2.99897 62.5986 1.63612 60.1706 1.63612C57.8826 1.63612 56.6392 2.63868 56.6392 4.19262ZM78.9857 11.5278C78.0371 12.8951 76.3914 13.8032 74.6161 13.8032C71.355 13.8032 68.9967 11.247 68.9967 7.7086C68.9967 4.17006 71.3351 1.63399 74.6161 1.63399C76.3808 1.63399 77.9964 2.52203 78.9334 3.88934C79.0099 3.82148 79.4532 3.3975 79.7978 3.06838L79.7998 3.06634C80.0137 2.86161 80.1889 2.69395 80.2131 2.67246C78.9112 1.04051 76.8571 0 74.6161 0C70.2695 0 67.1305 3.23178 67.1305 7.71053C67.1104 12.1894 70.2695 15.4411 74.6161 15.4411C76.8967 15.4411 78.9934 14.3987 80.2867 12.7748C80.247 12.7332 79.884 12.3869 79.551 12.0691L79.55 12.0685C79.2732 11.804 79.0167 11.5596 78.9857 11.5278ZM97.6701 0.308792H95.8261V15.1324H105.261V13.4854H96.0332L97.6701 11.8897V0.308792Z" fill="white"/>
</svg>
