<svg width="89" height="15" viewBox="0 0 89 15" fill="none" xmlns="http://www.w3.org/2000/svg">
<path fill-rule="evenodd" clip-rule="evenodd" d="M11.4284 10.3541C10.872 10.872 10.2505 11.317 9.57651 11.6779C8.88401 12.0185 8.11661 12.1853 7.34144 12.1633C6.69368 12.169 6.05079 12.0374 5.45944 11.7776C4.89241 11.5248 4.38277 11.1615 3.96357 10.7099C3.53562 10.2492 3.20397 9.71163 2.98513 9.12689C2.75462 8.51181 2.6379 7.86133 2.64082 7.20608V7.16621C2.6379 6.51475 2.75462 5.86797 2.98513 5.25697C3.20494 4.67817 3.53659 4.14674 3.96357 3.69223C4.38666 3.24853 4.89533 2.89071 5.45944 2.63929C6.05079 2.37649 6.69271 2.24353 7.34144 2.24966C8.09522 2.23672 8.84024 2.4008 9.51621 2.72828C10.1747 3.06286 10.7845 3.48448 11.3262 3.98149L12.932 2.17185C12.5955 1.85449 12.2356 1.56124 11.8563 1.29446C11.4673 1.02533 11.051 0.795603 10.6143 0.608862C10.1406 0.408601 9.64654 0.258236 9.14078 0.1601C8.55429 0.050292 7.95808 -0.00310396 7.3609 0.000591959C6.3416 -0.0121492 5.33106 0.180913 4.39152 0.567721C3.52201 0.92856 2.73418 1.45406 2.07378 2.11388C1.4124 2.7737 0.891088 3.5549 0.539975 4.41255C0.176219 5.30054 -0.00662492 6.24923 0.000183357 7.2057V7.24557C-0.00565231 8.20778 0.182055 9.16162 0.55262 10.0526C0.90665 10.902 1.42409 11.6763 2.07963 12.3324C2.73419 12.9829 3.51422 13.5007 4.37401 13.8564C5.28632 14.2347 6.26963 14.4247 7.26072 14.4148C7.87249 14.42 8.48232 14.364 9.08145 14.2477C9.60471 14.1407 10.1114 13.9725 10.5929 13.7467C11.0481 13.5295 11.4809 13.27 11.8845 12.9717C12.2959 12.6614 12.6801 12.3176 13.0332 11.9443L11.4284 10.3541ZM22.9791 0.139577H20.6604L14.3977 14.1769H16.9625L18.4234 10.8107L19.3406 8.64137L21.7799 3.06509L24.2425 8.64176L25.1597 10.8111L26.6011 14.1773H29.2456L22.9791 0.139577ZM41.236 1.51154C41.7009 1.92091 42.0676 2.42453 42.3117 2.98729C42.5714 3.59167 42.6998 4.24215 42.6891 4.89769V4.93757C42.7056 5.64971 42.5509 6.35563 42.2387 6.99921C41.9499 7.57704 41.5326 8.08396 41.0162 8.48205C40.4744 8.89279 39.8597 9.19974 39.2023 9.38668C38.4806 9.59715 37.7317 9.70093 36.9789 9.69461H34.1456V14.1768H31.6645V0.23966H37.2775C38.0409 0.229545 38.8006 0.339741 39.5271 0.565873C40.1564 0.764091 40.738 1.08583 41.236 1.51154ZM39.9434 5.97923C40.0863 5.66722 40.1554 5.32768 40.1447 4.98581L40.1437 4.94875C40.168 4.59423 40.1048 4.23913 39.9589 3.9137C39.814 3.58817 39.5893 3.30212 39.3063 3.07978C38.6537 2.62956 37.8639 2.40761 37.0654 2.44963H34.1456V7.48415H37.0654C37.8785 7.53016 38.6809 7.28214 39.319 6.78738C39.5874 6.56747 39.8004 6.29115 39.9434 5.97923ZM45.3725 0.23966V14.1768H47.8575V0.23966H45.3725ZM50.6411 2.50905V0.23966H62.1928V2.50905H57.678V14.1768H55.155V2.50905H50.6411ZM70.248 0.139577H67.9303L61.6657 14.1769H64.2256L65.6923 10.8107L66.6095 8.64137L69.0488 3.06509L71.5095 8.64176L72.4218 10.8111L73.869 14.1773H76.5126L70.248 0.139577ZM81.5157 0.241214V11.9672H88.9999V14.1768H79.0355V0.241214H81.5157Z" fill="white"/>
</svg>
