<svg width="19" height="22" viewBox="0 0 19 22" fill="none" xmlns="http://www.w3.org/2000/svg">
<path d="M19 6.7507L7.30766 0L5.84617 0.844475V2.53176L4.38458 1.68728L2.92308 2.53176V4.21894L1.46149 3.37456L0 4.21894V17.7204L1.46149 18.5648L2.92308 17.7204V19.4076L4.38458 20.2521L5.84617 19.4076V21.0949L7.30766 21.9394L19 15.1887V13.5014L17.5385 12.6569L19 11.8125V10.1253L17.5385 9.28079L19 8.43631V6.7507ZM2.92308 16.0332L1.46149 16.8775V5.06342L2.92308 5.90789V16.0332ZM7.30766 16.876V15.1887L13.1538 11.8141L14.6154 12.6586L7.30766 16.876ZM11.6923 10.9697L7.30766 13.5014V8.43798L11.6923 10.9697ZM13.1538 10.1253L7.30766 6.7507V5.06342L14.6154 9.28246L13.1538 10.1253ZM4.38458 3.37456L5.84617 4.21894V5.90622L4.38458 5.06185V3.37456ZM4.38458 6.7507L5.84617 7.59517V14.3459L4.38458 15.1903V6.7507ZM4.38458 16.876L5.84617 16.0315V17.7188L4.38458 18.5632V16.876ZM17.5385 14.3442L7.30766 20.2505V18.5632L16.0769 13.4998L17.5385 14.3442ZM17.5385 10.9697L16.0769 11.8141L14.6154 10.9697L16.0769 10.1253L17.5385 10.9697ZM16.0769 8.43798L7.30766 3.37456V1.68728L17.5385 7.59351L16.0769 8.43798Z" fill="white"/>
</svg>
