<svg width="101" height="15" viewBox="0 0 101 15" fill="none" xmlns="http://www.w3.org/2000/svg">
<path fill-rule="evenodd" clip-rule="evenodd" d="M97.5576 11.6264C98.2277 11.2664 98.8475 10.8234 99.4013 10.3085L101 11.8949C100.649 12.2665 100.265 12.6087 99.8545 12.9177C99.4526 13.2161 99.0217 13.4746 98.5676 13.6892C98.0873 13.9146 97.5809 14.0818 97.0599 14.1872C96.4635 14.3029 95.8573 14.3586 95.2501 14.3535C94.2625 14.3631 93.2825 14.1739 92.3733 13.7976C91.5154 13.4441 90.7368 12.9273 90.0851 12.2771C89.4325 11.6271 88.9183 10.8567 88.5717 10.0107C88.2008 9.12411 88.0139 8.17409 88.0217 7.21604V7.17634C88.0129 6.22293 88.1959 5.27717 88.561 4.3931C88.9106 3.53924 89.4296 2.76148 90.0881 2.10458C90.7465 1.44767 91.5299 0.924584 92.3955 0.565241C93.3309 0.179851 94.337 -0.0123597 95.3518 0.000615783C95.9454 -0.00306383 96.538 0.0500964 97.1209 0.15942C97.6254 0.256639 98.1183 0.40634 98.5908 0.606201C99.0246 0.792311 99.4381 1.02093 99.8235 1.28877C100.203 1.55438 100.562 1.84633 100.898 2.16239L99.2997 3.96384C98.7593 3.47 98.1532 3.05024 97.4976 2.71626C96.8237 2.38975 96.08 2.22639 95.3286 2.23975C94.6847 2.23365 94.0456 2.36612 93.4588 2.62776C92.8962 2.87749 92.3897 3.23383 91.9695 3.67596C91.5444 4.12865 91.2142 4.65774 90.9954 5.23379C90.7639 5.84161 90.6477 6.48583 90.6526 7.1346V7.1743C90.6477 7.82685 90.7639 8.47485 90.9954 9.08663C91.2132 9.66859 91.5434 10.2039 91.9695 10.6627C92.3868 11.1126 92.8933 11.4745 93.4588 11.7257C94.0465 11.9843 94.6847 12.1153 95.3286 12.1096C96.1013 12.1311 96.8672 11.9652 97.5576 11.6264ZM48.5153 11.6264C49.1855 11.2672 49.8052 10.8241 50.3588 10.3085L51.9576 11.8949C51.6057 12.2667 51.2222 12.6089 50.8115 12.9177C50.4102 13.2162 49.9794 13.4747 49.5257 13.6892C49.0453 13.9146 48.5388 14.0818 48.0171 14.1872C47.4211 14.3029 46.8147 14.3586 46.2072 14.3535C45.2193 14.363 44.24 14.1739 43.33 13.7976C42.4729 13.4424 41.6961 12.925 41.0438 12.2751C40.3916 11.6253 39.8769 10.8558 39.5292 10.0107C39.1581 9.12411 38.971 8.17409 38.9788 7.21604V7.17634C38.9703 6.22293 39.1536 5.27717 39.5182 4.3932C39.8684 3.53933 40.3873 2.76158 41.0454 2.10467C41.7033 1.44777 42.4876 0.924681 43.3527 0.565241C44.288 0.179948 45.2943 -0.0123597 46.309 0.000615783C46.9038 -0.00287016 47.4974 0.0502901 48.0816 0.15942C48.5852 0.257123 49.0767 0.406824 49.548 0.606201C49.9817 0.792118 50.3948 1.02084 50.7811 1.28877C51.1603 1.55438 51.5194 1.84633 51.856 2.16239L50.2571 3.96384C49.7168 3.46981 49.1104 3.05004 48.4544 2.71626C47.7813 2.38975 47.0378 2.22639 46.2867 2.23975C45.6417 2.23365 45.0033 2.36612 44.4163 2.62776C43.8539 2.87729 43.3476 3.23364 42.9268 3.67606C42.5022 4.12856 42.1715 4.65764 41.9532 5.23379C41.7212 5.84161 41.6049 6.48583 41.6101 7.1346V7.1743C41.605 7.82685 41.7213 8.47485 41.9532 9.08663C42.1705 9.66869 42.5012 10.204 42.9268 10.6627C43.3438 11.1129 43.8508 11.4747 44.4163 11.7257C45.004 11.9844 45.6422 12.1153 46.2867 12.1096C47.0589 12.131 47.8245 11.9651 48.5153 11.6264ZM2.46989 8.2043V11.9142H10.5871V14.114H0V0.238434H10.4865V2.43874H2.46989V6.00448H9.57783V8.2043H2.46989ZM16.0148 0.24008V11.9142H23.4655V14.114H13.5448V0.24008H16.0148ZM28.5301 11.9142V8.2043H35.6381V6.00448H28.5301V2.43874H36.5466V0.238434H26.0586V14.114H36.6456V11.9142H28.5301ZM53.5151 0.238434V2.49791H58.0104V14.114H60.5214V2.49791H65.0162V0.238434H53.5151ZM77.1988 8.29687C76.7708 8.54564 76.3108 8.73562 75.8296 8.8615L79.6602 14.114H76.7223L73.2259 9.27526L71.7403 7.11591H73.7535C74.5165 7.15678 75.2708 6.93484 75.8838 6.48854C76.1443 6.28626 76.3525 6.02665 76.49 5.73083C76.6284 5.43511 76.6933 5.11159 76.6797 4.78663V4.74692C76.7011 4.42079 76.642 4.09457 76.5074 3.79526C76.3728 3.49605 76.1685 3.23257 75.909 3.0268C75.2708 2.60016 74.5049 2.39372 73.7332 2.43991H70.098V14.114H67.6283V0.239306H73.9481C74.7528 0.225943 75.5546 0.349694 76.3166 0.604943C76.9577 0.820684 77.5445 1.16947 78.0364 1.62749C78.415 2.00639 78.7113 2.45734 78.9069 2.95253C79.1151 3.48453 79.2187 4.05041 79.2119 4.62027V4.65716C79.2187 5.17928 79.1335 5.69868 78.9592 6.19233C78.7994 6.63301 78.5622 7.0429 78.2581 7.40341C77.9589 7.75704 77.6006 8.05896 77.1988 8.29687ZM82.3919 0.238434V14.114H84.862V0.238434H82.3919Z" fill="white"/>
</svg>
